<svg width="30" height="30" viewBox="0 0 30 30" fill="none" xmlns="http://www.w3.org/2000/svg">
<path d="M3.75 12.5V5C3.75 4.64583 3.86979 4.34896 4.10938 4.10938C4.34896 3.86979 4.64583 3.75 5 3.75H12.5C12.8542 3.75 13.151 3.86979 13.3906 4.10938C13.6302 4.34896 13.75 4.64583 13.75 5V12.5C13.75 12.8542 13.6302 13.151 13.3906 13.3906C13.151 13.6302 12.8542 13.75 12.5 13.75H5C4.64583 13.75 4.34896 13.6302 4.10938 13.3906C3.86979 13.151 3.75 12.8542 3.75 12.5ZM16.25 25V17.5C16.25 17.1458 16.3698 16.849 16.6094 16.6094C16.849 16.3698 17.1458 16.25 17.5 16.25H25C25.3542 16.25 25.651 16.3698 25.8906 16.6094C26.1302 16.849 26.25 17.1458 26.25 17.5V25C26.25 25.3542 26.1302 25.651 25.8906 25.8906C25.651 26.1302 25.3542 26.25 25 26.25H17.5C17.1458 26.25 16.849 26.1302 16.6094 25.8906C16.3698 25.651 16.25 25.3542 16.25 25ZM3.75 25V17.5C3.75 17.1458 3.86979 16.849 4.10938 16.6094C4.34896 16.3698 4.64583 16.25 5 16.25H12.5C12.8542 16.25 13.151 16.3698 13.3906 16.6094C13.6302 16.849 13.75 17.1458 13.75 17.5V25C13.75 25.3542 13.6302 25.651 13.3906 25.8906C13.151 26.1302 12.8542 26.25 12.5 26.25H5C4.64583 26.25 4.34896 26.1302 4.10938 25.8906C3.86979 25.651 3.75 25.3542 3.75 25ZM6.25 11.25H11.25V6.25H6.25V11.25ZM18.75 23.75H23.75V18.75H18.75V23.75ZM6.25 23.75H11.25V18.75H6.25V23.75Z" fill="#240046"/>
<path d="M16.25 12.5V5C16.25 4.64583 16.3698 4.34896 16.6094 4.10938C16.849 3.86979 17.1458 3.75 17.5 3.75H25C25.3542 3.75 25.651 3.86979 25.8906 4.10938C26.1302 4.34896 26.25 4.64583 26.25 5V12.5C26.25 12.8542 26.1302 13.151 25.8906 13.3906C25.651 13.6302 25.3542 13.75 25 13.75H17.5C17.1458 13.75 16.849 13.6302 16.6094 13.3906C16.3698 13.151 16.25 12.8542 16.25 12.5ZM18.75 11.25H23.75V6.25H18.75V11.25Z" fill="#240046"/>
</svg>
