<svg width="20" height="20" viewBox="0 0 20 20" fill="none" xmlns="http://www.w3.org/2000/svg">
<path d="M4 17.875V9.625H2.5V5.125H6.4C6.3375 5.0125 6.29687 4.89375 6.27812 4.76875C6.25937 4.64375 6.25 4.5125 6.25 4.375C6.25 3.75 6.46875 3.21875 6.90625 2.78125C7.34375 2.34375 7.875 2.125 8.5 2.125C8.7875 2.125 9.05625 2.17813 9.30625 2.28438C9.55625 2.39063 9.7875 2.5375 10 2.725C10.2125 2.525 10.4437 2.375 10.6937 2.275C10.9437 2.175 11.2125 2.125 11.5 2.125C12.125 2.125 12.6562 2.34375 13.0937 2.78125C13.5312 3.21875 13.75 3.75 13.75 4.375C13.75 4.5125 13.7375 4.64063 13.7125 4.75938C13.6875 4.87813 13.65 5 13.6 5.125H17.5V9.625H16V17.875H4ZM11.5 3.625C11.2875 3.625 11.1094 3.69688 10.9656 3.84063C10.8219 3.98438 10.75 4.1625 10.75 4.375C10.75 4.5875 10.8219 4.76563 10.9656 4.90938C11.1094 5.05313 11.2875 5.125 11.5 5.125C11.7125 5.125 11.8906 5.05313 12.0344 4.90938C12.1781 4.76563 12.25 4.5875 12.25 4.375C12.25 4.1625 12.1781 3.98438 12.0344 3.84063C11.8906 3.69688 11.7125 3.625 11.5 3.625ZM7.75 4.375C7.75 4.5875 7.82187 4.76563 7.96562 4.90938C8.10937 5.05313 8.2875 5.125 8.5 5.125C8.7125 5.125 8.89062 5.05313 9.03437 4.90938C9.17812 4.76563 9.25 4.5875 9.25 4.375C9.25 4.1625 9.17812 3.98438 9.03437 3.84063C8.89062 3.69688 8.7125 3.625 8.5 3.625C8.2875 3.625 8.10937 3.69688 7.96562 3.84063C7.82187 3.98438 7.75 4.1625 7.75 4.375ZM4 6.625V8.125H9.25V6.625H4ZM9.25 16.375V9.625H5.5V16.375H9.25ZM10.75 16.375H14.5V9.625H10.75V16.375ZM16 8.125V6.625H10.75V8.125H16Z" fill="url(#paint0_linear_335_1450)"/>
<defs>
<linearGradient id="paint0_linear_335_1450" x1="1.88953" y1="10.482" x2="21.8937" y2="10.482" gradientUnits="userSpaceOnUse">
<stop stop-color="#7000FF"/>
<stop offset="1" stop-color="#FF9B05"/>
</linearGradient>
</defs>
</svg>
