<svg width="20" height="20" viewBox="0 0 20 20" fill="none" xmlns="http://www.w3.org/2000/svg">
<path d="M6.67578 18.3332C6.21745 18.3332 5.82509 18.17 5.4987 17.8436C5.17231 17.5172 5.00911 17.1248 5.00911 16.6665C5.00911 16.2082 5.17231 15.8158 5.4987 15.4894C5.82509 15.163 6.21745 14.9998 6.67578 14.9998C7.13411 14.9998 7.52648 15.163 7.85286 15.4894C8.17925 15.8158 8.34245 16.2082 8.34245 16.6665C8.34245 17.1248 8.17925 17.5172 7.85286 17.8436C7.52648 18.17 7.13411 18.3332 6.67578 18.3332ZM15.0091 18.3332C14.5508 18.3332 14.1584 18.17 13.832 17.8436C13.5056 17.5172 13.3424 17.1248 13.3424 16.6665C13.3424 16.2082 13.5056 15.8158 13.832 15.4894C14.1584 15.163 14.5508 14.9998 15.0091 14.9998C15.4674 14.9998 15.8598 15.163 16.1862 15.4894C16.5126 15.8158 16.6758 16.2082 16.6758 16.6665C16.6758 17.1248 16.5126 17.5172 16.1862 17.8436C15.8598 18.17 15.4674 18.3332 15.0091 18.3332ZM5.96745 4.99984L7.96745 9.1665H13.8008L16.0924 4.99984H5.96745ZM5.17578 3.33317H17.4674C17.7869 3.33317 18.0299 3.47553 18.1966 3.76025C18.3633 4.04498 18.3702 4.33317 18.2174 4.62484L15.2591 9.95817C15.1063 10.2359 14.9015 10.4512 14.6445 10.604C14.3876 10.7568 14.1063 10.8332 13.8008 10.8332H7.59245L6.67578 12.4998H16.6758V14.1665H6.67578C6.05078 14.1665 5.57856 13.8922 5.25911 13.3436C4.93967 12.795 4.92578 12.2498 5.21745 11.7082L6.34245 9.6665L3.34245 3.33317H1.67578V1.6665H4.38411L5.17578 3.33317Z" fill="#3C096C"/>
</svg>
