<svg fill="none" xmlns="http://www.w3.org/2000/svg">

<!-- Hero Icons -->
<g id="done">
<path id="Vector" d="M10.0492 27L1.57422 18.525L3.71172 16.425L10.0867 22.8L12.1867 24.9L10.0492 27ZM18.5242 27L10.0492 18.525L12.1492 16.3875L18.5242 22.7625L32.3242 8.96252L34.4242 11.1L18.5242 27ZM18.5242 18.525L16.3867 16.425L23.8117 9.00002L25.9492 11.1L18.5242 18.525Z"/>
</g>

<g id="game">
<path id="Vector" d="M6.82594 28.5C5.55094 28.5 4.56344 28.0563 3.86344 27.1688C3.16344 26.2812 2.90094 25.2 3.07594 23.925L4.65094 12.675C4.87594 11.175 5.54469 9.9375 6.65719 8.9625C7.76969 7.9875 9.07594 7.5 10.5759 7.5H25.4259C26.9259 7.5 28.2322 7.9875 29.3447 8.9625C30.4572 9.9375 31.1259 11.175 31.3509 12.675L32.9259 23.925C33.1009 25.2 32.8384 26.2812 32.1384 27.1688C31.4384 28.0563 30.4509 28.5 29.1759 28.5C28.6509 28.5 28.1634 28.4062 27.7134 28.2188C27.2634 28.0312 26.8509 27.75 26.4759 27.375L23.1009 24H12.9009L9.52594 27.375C9.15094 27.75 8.73844 28.0312 8.28844 28.2188C7.83844 28.4062 7.35094 28.5 6.82594 28.5ZM7.42594 25.275L11.7009 21H24.3009L28.5759 25.275C28.6259 25.325 28.8259 25.4 29.1759 25.5C29.4509 25.5 29.6697 25.4188 29.8322 25.2563C29.9947 25.0938 30.0509 24.875 30.0009 24.6L28.3509 13.05C28.2509 12.325 27.9259 11.7188 27.3759 11.2313C26.8259 10.7438 26.1759 10.5 25.4259 10.5H10.5759C9.82594 10.5 9.17594 10.7438 8.62594 11.2313C8.07594 11.7188 7.75094 12.325 7.65094 13.05L6.00094 24.6C5.95094 24.875 6.00719 25.0938 6.16969 25.2563C6.33219 25.4188 6.55094 25.5 6.82594 25.5C6.87594 25.5 7.07594 25.425 7.42594 25.275ZM25.5009 19.5C25.9259 19.5 26.2822 19.3563 26.5697 19.0688C26.8572 18.7812 27.0009 18.425 27.0009 18C27.0009 17.575 26.8572 17.2188 26.5697 16.9313C26.2822 16.6438 25.9259 16.5 25.5009 16.5C25.0759 16.5 24.7197 16.6438 24.4322 16.9313C24.1447 17.2188 24.0009 17.575 24.0009 18C24.0009 18.425 24.1447 18.7812 24.4322 19.0688C24.7197 19.3563 25.0759 19.5 25.5009 19.5ZM22.5009 15C22.9259 15 23.2822 14.8563 23.5697 14.5688C23.8572 14.2813 24.0009 13.925 24.0009 13.5C24.0009 13.075 23.8572 12.7188 23.5697 12.4313C23.2822 12.1438 22.9259 12 22.5009 12C22.0759 12 21.7197 12.1438 21.4322 12.4313C21.1447 12.7188 21.0009 13.075 21.0009 13.5C21.0009 13.925 21.1447 14.2813 21.4322 14.5688C21.7197 14.8563 22.0759 15 22.5009 15ZM11.6259 19.5H13.8759V16.875H16.5009V14.625H13.8759V12H11.6259V14.625H9.00094V16.875H11.6259V19.5Z"/>
</g>

<g id="shop">
<path id="Vector" d="M10.5 31C9.8125 31 9.22396 30.7552 8.73438 30.2656C8.24479 29.776 8 29.1875 8 28.5C8 27.8125 8.24479 27.224 8.73438 26.7344C9.22396 26.2448 9.8125 26 10.5 26C11.1875 26 11.776 26.2448 12.2656 26.7344C12.7552 27.224 13 27.8125 13 28.5C13 29.1875 12.7552 29.776 12.2656 30.2656C11.776 30.7552 11.1875 31 10.5 31ZM23 31C22.3125 31 21.724 30.7552 21.2344 30.2656C20.7448 29.776 20.5 29.1875 20.5 28.5C20.5 27.8125 20.7448 27.224 21.2344 26.7344C21.724 26.2448 22.3125 26 23 26C23.6875 26 24.276 26.2448 24.7656 26.7344C25.2552 27.224 25.5 27.8125 25.5 28.5C25.5 29.1875 25.2552 29.776 24.7656 30.2656C24.276 30.7552 23.6875 31 23 31ZM9.4375 11L12.4375 17.25H21.1875L24.625 11H9.4375ZM8.25 8.5H26.6875C27.1667 8.5 27.5312 8.71354 27.7812 9.14062C28.0312 9.56771 28.0417 10 27.8125 10.4375L23.375 18.4375C23.1458 18.8542 22.8385 19.1771 22.4531 19.4062C22.0677 19.6354 21.6458 19.75 21.1875 19.75H11.875L10.5 22.25H25.5V24.75H10.5C9.5625 24.75 8.85417 24.3385 8.375 23.5156C7.89583 22.6927 7.875 21.875 8.3125 21.0625L10 18L5.5 8.5H3V6H7.0625L8.25 8.5Z"/>
</g>

<g id="gift">
<path id="Vector" d="M5.5 31.125V17.375H3V9.875H9.5C9.39583 9.6875 9.32812 9.48958 9.29687 9.28125C9.26562 9.07292 9.25 8.85417 9.25 8.625C9.25 7.58333 9.61458 6.69792 10.3437 5.96875C11.0729 5.23958 11.9583 4.875 13 4.875C13.4792 4.875 13.9271 4.96354 14.3437 5.14062C14.7604 5.31771 15.1458 5.5625 15.5 5.875C15.8542 5.54167 16.2396 5.29167 16.6562 5.125C17.0729 4.95833 17.5208 4.875 18 4.875C19.0417 4.875 19.9271 5.23958 20.6562 5.96875C21.3854 6.69792 21.75 7.58333 21.75 8.625C21.75 8.85417 21.7292 9.06771 21.6875 9.26562C21.6458 9.46354 21.5833 9.66667 21.5 9.875H28V17.375H25.5V31.125H5.5ZM18 7.375C17.6458 7.375 17.349 7.49479 17.1094 7.73438C16.8698 7.97396 16.75 8.27083 16.75 8.625C16.75 8.97917 16.8698 9.27604 17.1094 9.51562C17.349 9.75521 17.6458 9.875 18 9.875C18.3542 9.875 18.651 9.75521 18.8906 9.51562C19.1302 9.27604 19.25 8.97917 19.25 8.625C19.25 8.27083 19.1302 7.97396 18.8906 7.73438C18.651 7.49479 18.3542 7.375 18 7.375ZM11.75 8.625C11.75 8.97917 11.8698 9.27604 12.1094 9.51562C12.349 9.75521 12.6458 9.875 13 9.875C13.3542 9.875 13.651 9.75521 13.8906 9.51562C14.1302 9.27604 14.25 8.97917 14.25 8.625C14.25 8.27083 14.1302 7.97396 13.8906 7.73438C13.651 7.49479 13.3542 7.375 13 7.375C12.6458 7.375 12.349 7.49479 12.1094 7.73438C11.8698 7.97396 11.75 8.27083 11.75 8.625ZM5.5 12.375V14.875H14.25V12.375H5.5ZM14.25 28.625V17.375H8V28.625H14.25ZM16.75 28.625H23V17.375H16.75V28.625ZM25.5 14.875V12.375H16.75V14.875H25.5Z"/>
</g>


<!-- Other Icons -->
<g id="account">
<path id="Vector" d="M7.3125 21.375C8.375 20.5625 9.5625 19.9219 10.875 19.4531C12.1875 18.9844 13.5625 18.75 15 18.75C16.4375 18.75 17.8125 18.9844 19.125 19.4531C20.4375 19.9219 21.625 20.5625 22.6875 21.375C23.4167 20.5208 23.9844 19.5521 24.3906 18.4688C24.7969 17.3854 25 16.2292 25 15C25 12.2292 24.026 9.86979 22.0781 7.92188C20.1302 5.97396 17.7708 5 15 5C12.2292 5 9.86979 5.97396 7.92188 7.92188C5.97396 9.86979 5 12.2292 5 15C5 16.2292 5.20312 17.3854 5.60938 18.4688C6.01562 19.5521 6.58333 20.5208 7.3125 21.375ZM15 16.25C13.7708 16.25 12.7344 15.8281 11.8906 14.9844C11.0469 14.1406 10.625 13.1042 10.625 11.875C10.625 10.6458 11.0469 9.60938 11.8906 8.76562C12.7344 7.92188 13.7708 7.5 15 7.5C16.2292 7.5 17.2656 7.92188 18.1094 8.76562C18.9531 9.60938 19.375 10.6458 19.375 11.875C19.375 13.1042 18.9531 14.1406 18.1094 14.9844C17.2656 15.8281 16.2292 16.25 15 16.25ZM15 27.5C13.2708 27.5 11.6458 27.1719 10.125 26.5156C8.60417 25.8594 7.28125 24.9688 6.15625 23.8438C5.03125 22.7188 4.14062 21.3958 3.48438 19.875C2.82812 18.3542 2.5 16.7292 2.5 15C2.5 13.2708 2.82812 11.6458 3.48438 10.125C4.14062 8.60417 5.03125 7.28125 6.15625 6.15625C7.28125 5.03125 8.60417 4.14062 10.125 3.48438C11.6458 2.82812 13.2708 2.5 15 2.5C16.7292 2.5 18.3542 2.82812 19.875 3.48438C21.3958 4.14062 22.7188 5.03125 23.8438 6.15625C24.9688 7.28125 25.8594 8.60417 26.5156 10.125C27.1719 11.6458 27.5 13.2708 27.5 15C27.5 16.7292 27.1719 18.3542 26.5156 19.875C25.8594 21.3958 24.9688 22.7188 23.8438 23.8438C22.7188 24.9688 21.3958 25.8594 19.875 26.5156C18.3542 27.1719 16.7292 27.5 15 27.5ZM15 25C16.1042 25 17.1458 24.8385 18.125 24.5156C19.1042 24.1927 20 23.7292 20.8125 23.125C20 22.5208 19.1042 22.0573 18.125 21.7344C17.1458 21.4115 16.1042 21.25 15 21.25C13.8958 21.25 12.8542 21.4115 11.875 21.7344C10.8958 22.0573 10 22.5208 9.1875 23.125C10 23.7292 10.8958 24.1927 11.875 24.5156C12.8542 24.8385 13.8958 25 15 25ZM15 13.75C15.5417 13.75 15.9896 13.5729 16.3438 13.2188C16.6979 12.8646 16.875 12.4167 16.875 11.875C16.875 11.3333 16.6979 10.8854 16.3438 10.5312C15.9896 10.1771 15.5417 10 15 10C14.4583 10 14.0104 10.1771 13.6562 10.5312C13.3021 10.8854 13.125 11.3333 13.125 11.875C13.125 12.4167 13.3021 12.8646 13.6562 13.2188C14.0104 13.5729 14.4583 13.75 15 13.75Z"/>
</g>

<g id="search">
<path id="Vector" d="M24.5 26.25L16.625 18.375C16 18.875 15.2812 19.2708 14.4688 19.5625C13.6562 19.8542 12.7917 20 11.875 20C9.60417 20 7.68229 19.2135 6.10938 17.6406C4.53646 16.0677 3.75 14.1458 3.75 11.875C3.75 9.60417 4.53646 7.68229 6.10938 6.10938C7.68229 4.53646 9.60417 3.75 11.875 3.75C14.1458 3.75 16.0677 4.53646 17.6406 6.10938C19.2135 7.68229 20 9.60417 20 11.875C20 12.7917 19.8542 13.6562 19.5625 14.4688C19.2708 15.2812 18.875 16 18.375 16.625L26.25 24.5L24.5 26.25ZM11.875 17.5C13.4375 17.5 14.7656 16.9531 15.8594 15.8594C16.9531 14.7656 17.5 13.4375 17.5 11.875C17.5 10.3125 16.9531 8.98438 15.8594 7.89062C14.7656 6.79688 13.4375 6.25 11.875 6.25C10.3125 6.25 8.98438 6.79688 7.89062 7.89062C6.79688 8.98438 6.25 10.3125 6.25 11.875C6.25 13.4375 6.79688 14.7656 7.89062 15.8594C8.98438 16.9531 10.3125 17.5 11.875 17.5Z"/>
</g>

<g id="play">
<path id="Vector" d="M8 19V5L19 12L8 19ZM10 15.35L15.25 12L10 8.65V15.35Z"/>
</g>


<!-- Contact Icons -->
<g id="phone">
<path d="M24.9375 26.25C22.3333 26.25 19.7604 25.6823 17.2188 24.5469C14.6771 23.4115 12.3646 21.8021 10.2812 19.7188C8.19792 17.6354 6.58854 15.3229 5.45312 12.7812C4.31771 10.2396 3.75 7.66667 3.75 5.0625C3.75 4.6875 3.875 4.375 4.125 4.125C4.375 3.875 4.6875 3.75 5.0625 3.75H10.125C10.4167 3.75 10.6771 3.84896 10.9062 4.04688C11.1354 4.24479 11.2708 4.47917 11.3125 4.75L12.125 9.125C12.1667 9.45833 12.1562 9.73958 12.0938 9.96875C12.0312 10.1979 11.9167 10.3958 11.75 10.5625L8.71875 13.625C9.13542 14.3958 9.63021 15.1406 10.2031 15.8594C10.776 16.5781 11.4062 17.2708 12.0938 17.9375C12.7396 18.5833 13.4167 19.1823 14.125 19.7344C14.8333 20.2865 15.5833 20.7917 16.375 21.25L19.3125 18.3125C19.5 18.125 19.7448 17.9844 20.0469 17.8906C20.349 17.7969 20.6458 17.7708 20.9375 17.8125L25.25 18.6875C25.5417 18.7708 25.7812 18.9219 25.9688 19.1406C26.1562 19.3594 26.25 19.6042 26.25 19.875V24.9375C26.25 25.3125 26.125 25.625 25.875 25.875C25.625 26.125 25.3125 26.25 24.9375 26.25ZM7.53125 11.25L9.59375 9.1875L9.0625 6.25H6.28125C6.38542 7.10417 6.53125 7.94792 6.71875 8.78125C6.90625 9.61458 7.17708 10.4375 7.53125 11.25ZM18.7188 22.4375C19.5312 22.7917 20.3594 23.0729 21.2031 23.2812C22.0469 23.4896 22.8958 23.625 23.75 23.6875V20.9375L20.8125 20.3438L18.7188 22.4375Z"/>
</g>

<g id="email">
<path d="M5 25C4.3125 25 3.72396 24.7552 3.23438 24.2656C2.74479 23.776 2.5 23.1875 2.5 22.5V7.5C2.5 6.8125 2.74479 6.22396 3.23438 5.73438C3.72396 5.24479 4.3125 5 5 5H25C25.6875 5 26.276 5.24479 26.7656 5.73438C27.2552 6.22396 27.5 6.8125 27.5 7.5V22.5C27.5 23.1875 27.2552 23.776 26.7656 24.2656C26.276 24.7552 25.6875 25 25 25H5ZM15 16.25L5 10V22.5H25V10L15 16.25ZM15 13.75L25 7.5H5L15 13.75ZM5 10V7.5V22.5V10Z"/>
</g>


<!-- Social Icons -->
<g id="facebook">
  <path fill-rule="evenodd" clip-rule="evenodd" d="M8.34546 12.75C7.02548 12.75 6.75 13.009 6.75 14.2499V16.5C6.75 17.741 7.02548 18 8.34546 18H11.5364V27C11.5364 28.2409 11.8118 28.5 13.1318 28.5H16.3227C17.6427 28.5 17.9181 28.2409 17.9181 27V18H21.501C22.5022 18 22.7602 17.817 23.0352 16.9121L23.719 14.6621C24.19 13.1119 23.8997 12.75 22.1848 12.75H17.9181V9.00001C17.9181 8.17158 18.6324 7.49999 19.5136 7.49999H24.0546C25.3745 7.49999 25.65 7.241 25.65 6V3C25.65 1.759 25.3745 1.5 24.0546 1.5H19.5136C15.1079 1.5 11.5364 4.85787 11.5364 9.00001V12.75H8.34546Z" stroke-width="2" stroke-linejoin="round"/>
</g>

<g id="twitter">
  <path d="M2.5 23.125C4.7063 24.4013 7.26785 25 10 25C18.101 25 24.7021 18.5781 24.9903 10.5475L27.5 5.625L23.3072 6.25C22.4259 5.47205 21.268 5 20 5C16.7845 5 14.3759 8.14667 15.1511 11.225C10.7098 11.5116 6.68584 8.77662 4.35866 5.13154C2.81434 10.3773 4.24536 16.6951 8.125 20.5881C8.125 22.0588 4.375 22.936 2.5 23.125Z" stroke-width="2" stroke-linejoin="round"/>
</g>

<g id="whatsapp">
  <path d="M15 27.5C21.9035 27.5 27.5 21.9035 27.5 15C27.5 8.09644 21.9035 2.5 15 2.5C8.09644 2.5 2.5 8.09644 2.5 15C2.5 16.7236 2.84884 18.3658 3.47977 19.8596C3.82847 20.6851 4.00283 21.098 4.02441 21.41C4.046 21.722 3.95417 22.0651 3.77052 22.7515L2.5 27.5L7.24846 26.2295C7.93485 26.0459 8.27805 25.954 8.59002 25.9756C8.90201 25.9971 9.31481 26.1715 10.1404 26.5202C11.6343 27.1511 13.2764 27.5 15 27.5Z" stroke-width="2" stroke-linejoin="round"/>
  <path d="M10.7352 15.4716L11.8239 14.1195C12.2827 13.5496 12.8499 13.0191 12.8944 12.2603C12.9055 12.0687 12.7708 11.2082 12.501 9.48732C12.395 8.81101 11.7636 8.75 11.2167 8.75C10.5039 8.75 10.1476 8.75 9.79369 8.91164C9.34643 9.11594 8.88724 9.69039 8.78646 10.1717C8.70674 10.5524 8.76599 10.8148 8.88449 11.3396C9.38779 13.5685 10.5685 15.7697 12.3994 17.6006C14.2303 19.4315 16.4315 20.6122 18.6604 21.1155C19.1851 21.234 19.4475 21.2932 19.8284 21.2135C20.3096 21.1127 20.884 20.6536 21.0884 20.2063C21.25 19.8524 21.25 19.4961 21.25 18.7834C21.25 18.2364 21.189 17.605 20.5126 17.499C18.7918 17.2292 17.9314 17.0945 17.7396 17.1056C16.9809 17.1501 16.4504 17.7172 15.8805 18.1761L14.5284 19.2647" stroke-width="2"/>
</g>


<!-- Decorative Icons -->
<g id="star">
<path id="Vector" d="M10 0C9.54927 3.67912 9.40023 6.01533 8.51952 7.52342C7.07984 9.3979 4.58438 9.57643 0 10C4.51007 10.5457 6.94859 10.664 8.39249 12.3811C9.47125 13.9013 9.65377 16.2527 10 20C10.588 15.14 10.6802 12.6857 12.8111 11.2891C14.3263 10.5573 16.5872 10.3976 20 10C15.7682 9.48156 13.3129 9.36226 11.8512 8.06953C10.6152 6.59602 10.4833 4.14928 10 0Z" />
</g>

<g id="circle">
<path id="Vector" d="M10 20C15.5228 20 20 15.5228 20 10C20 4.47715 15.5228 0 10 0C4.47715 0 0 4.47715 0 10C0 15.5228 4.47715 20 10 20Z"/>
</g>

<g id="circle_rings">
<path d="M10.0149 0C15.5126 0 20 4.48737 20 10.0149C20 15.5126 15.5126 20 10.0149 20C4.48737 20 0 15.5126 0 10.0149C0 4.48737 4.48737 0 10.0149 0ZM10.0149 0.505201C4.78455 0.505201 0.505201 4.72511 0.505201 10.0149C0.505201 15.2452 4.75483 19.4948 10.0149 19.4948C15.2452 19.4948 19.4948 15.2452 19.4948 10.0149C19.4948 4.75483 15.2452 0.505201 10.0149 0.505201ZM10.0149 1.60475C5.3789 1.60475 1.60475 5.3789 1.60475 10.0149C1.60475 14.6211 5.3789 18.3952 10.0149 18.3952C14.6211 18.3952 18.3952 14.6211 18.3952 10.0149C18.3952 6.24071 15.899 3.0312 12.4814 1.99108C11.679 1.75334 10.847 1.60475 10.0149 1.60475ZM10.0149 1.09955C14.9183 1.09955 18.9004 5.08172 18.9004 10.0149C18.9004 14.9183 14.9183 18.9004 10.0149 18.9004C5.08172 18.9004 1.09955 14.9183 1.09955 10.0149C1.09955 5.08172 5.08172 1.09955 10.0149 1.09955Z"/>
</g>


<!-- Filter Icons -->
<g id="cancel">
<path d="M10.5 21.25L15 16.75L19.5 21.25L21.25 19.5L16.75 15L21.25 10.5L19.5 8.75L15 13.25L10.5 8.75L8.75 10.5L13.25 15L8.75 19.5L10.5 21.25ZM15 27.5C13.2708 27.5 11.6458 27.1719 10.125 26.5156C8.60417 25.8594 7.28125 24.9688 6.15625 23.8438C5.03125 22.7188 4.14062 21.3958 3.48438 19.875C2.82812 18.3542 2.5 16.7292 2.5 15C2.5 13.2708 2.82812 11.6458 3.48438 10.125C4.14062 8.60417 5.03125 7.28125 6.15625 6.15625C7.28125 5.03125 8.60417 4.14062 10.125 3.48438C11.6458 2.82812 13.2708 2.5 15 2.5C16.7292 2.5 18.3542 2.82812 19.875 3.48438C21.3958 4.14062 22.7188 5.03125 23.8438 6.15625C24.9688 7.28125 25.8594 8.60417 26.5156 10.125C27.1719 11.6458 27.5 13.2708 27.5 15C27.5 16.7292 27.1719 18.3542 26.5156 19.875C25.8594 21.3958 24.9688 22.7188 23.8438 23.8438C22.7188 24.9688 21.3958 25.8594 19.875 26.5156C18.3542 27.1719 16.7292 27.5 15 27.5ZM15 25C17.7917 25 20.1562 24.0312 22.0938 22.0938C24.0312 20.1562 25 17.7917 25 15C25 12.2083 24.0312 9.84375 22.0938 7.90625C20.1562 5.96875 17.7917 5 15 5C12.2083 5 9.84375 5.96875 7.90625 7.90625C5.96875 9.84375 5 12.2083 5 15C5 17.7917 5.96875 20.1562 7.90625 22.0938C9.84375 24.0312 12.2083 25 15 25Z"/>
</g>


<g id="close">
  <path d="M8 23.75L6.25 22L13.25 15L6.25 8L8 6.25L15 13.25L22 6.25L23.75 8L16.75 15L23.75 22L22 23.75L15 16.75L8 23.75Z"/>
</g>

<g id="filter">
  <path d="M13.75 26.25V18.75H16.25V21.25H26.25V23.75H16.25V26.25H13.75ZM3.75 23.75V21.25H11.25V23.75H3.75ZM8.75 18.75V16.25H3.75V13.75H8.75V11.25H11.25V18.75H8.75ZM13.75 16.25V13.75H26.25V16.25H13.75ZM18.75 11.25V3.75H21.25V6.25H26.25V8.75H21.25V11.25H18.75ZM3.75 8.75V6.25H16.25V8.75H3.75Z"/>
</g>

<g id="category">
  <path d="M3.75 12.5V5C3.75 4.64583 3.86979 4.34896 4.10938 4.10938C4.34896 3.86979 4.64583 3.75 5 3.75H12.5C12.8542 3.75 13.151 3.86979 13.3906 4.10938C13.6302 4.34896 13.75 4.64583 13.75 5V12.5C13.75 12.8542 13.6302 13.151 13.3906 13.3906C13.151 13.6302 12.8542 13.75 12.5 13.75H5C4.64583 13.75 4.34896 13.6302 4.10938 13.3906C3.86979 13.151 3.75 12.8542 3.75 12.5ZM16.25 25V17.5C16.25 17.1458 16.3698 16.849 16.6094 16.6094C16.849 16.3698 17.1458 16.25 17.5 16.25H25C25.3542 16.25 25.651 16.3698 25.8906 16.6094C26.1302 16.849 26.25 17.1458 26.25 17.5V25C26.25 25.3542 26.1302 25.651 25.8906 25.8906C25.651 26.1302 25.3542 26.25 25 26.25H17.5C17.1458 26.25 16.849 26.1302 16.6094 25.8906C16.3698 25.651 16.25 25.3542 16.25 25ZM3.75 25V17.5C3.75 17.1458 3.86979 16.849 4.10938 16.6094C4.34896 16.3698 4.64583 16.25 5 16.25H12.5C12.8542 16.25 13.151 16.3698 13.3906 16.6094C13.6302 16.849 13.75 17.1458 13.75 17.5V25C13.75 25.3542 13.6302 25.651 13.3906 25.8906C13.151 26.1302 12.8542 26.25 12.5 26.25H5C4.64583 26.25 4.34896 26.1302 4.10938 25.8906C3.86979 25.651 3.75 25.3542 3.75 25ZM6.25 11.25H11.25V6.25H6.25V11.25ZM18.75 23.75H23.75V18.75H18.75V23.75ZM6.25 23.75H11.25V18.75H6.25V23.75Z"/>
  <path d="M16.25 12.5V5C16.25 4.64583 16.3698 4.34896 16.6094 4.10938C16.849 3.86979 17.1458 3.75 17.5 3.75H25C25.3542 3.75 25.651 3.86979 25.8906 4.10938C26.1302 4.34896 26.25 4.64583 26.25 5V12.5C26.25 12.8542 26.1302 13.151 25.8906 13.3906C25.651 13.6302 25.3542 13.75 25 13.75H17.5C17.1458 13.75 16.849 13.6302 16.6094 13.3906C16.3698 13.151 16.25 12.8542 16.25 12.5ZM18.75 11.25H23.75V6.25H18.75V11.25Z"/>
</g>

<g id="receipt">
  <path d="M7.5 27.5C6.45833 27.5 5.57292 27.1354 4.84375 26.4062C4.11458 25.6771 3.75 24.7917 3.75 23.75V20H7.5V2.5L9.375 4.375L11.25 2.5L13.125 4.375L15 2.5L16.875 4.375L18.75 2.5L20.625 4.375L22.5 2.5L24.375 4.375L26.25 2.5V23.75C26.25 24.7917 25.8854 25.6771 25.1562 26.4062C24.4271 27.1354 23.5417 27.5 22.5 27.5H7.5ZM22.5 25C22.8542 25 23.151 24.8802 23.3906 24.6406C23.6302 24.401 23.75 24.1042 23.75 23.75V6.25H10V20H21.25V23.75C21.25 24.1042 21.3698 24.401 21.6094 24.6406C21.849 24.8802 22.1458 25 22.5 25ZM11.25 11.25V8.75H18.75V11.25H11.25ZM11.25 15V12.5H18.75V15H11.25ZM21.25 11.25C20.8958 11.25 20.599 11.1302 20.3594 10.8906C20.1198 10.651 20 10.3542 20 10C20 9.64583 20.1198 9.34896 20.3594 9.10938C20.599 8.86979 20.8958 8.75 21.25 8.75C21.6042 8.75 21.901 8.86979 22.1406 9.10938C22.3802 9.34896 22.5 9.64583 22.5 10C22.5 10.3542 22.3802 10.651 22.1406 10.8906C21.901 11.1302 21.6042 11.25 21.25 11.25ZM21.25 15C20.8958 15 20.599 14.8802 20.3594 14.6406C20.1198 14.401 20 14.1042 20 13.75C20 13.3958 20.1198 13.099 20.3594 12.8594C20.599 12.6198 20.8958 12.5 21.25 12.5C21.6042 12.5 21.901 12.6198 22.1406 12.8594C22.3802 13.099 22.5 13.3958 22.5 13.75C22.5 14.1042 22.3802 14.401 22.1406 14.6406C21.901 14.8802 21.6042 15 21.25 15ZM7.5 25H18.75V22.5H6.25V23.75C6.25 24.1042 6.36979 24.401 6.60938 24.6406C6.84896 24.8802 7.14583 25 7.5 25Z"/>
</g>


<!-- (14 X 14) Individual Product Icons -->
<g id="game1">
  <path d="M1.77717 11.8147C1.18127 11.8147 0.719746 11.6073 0.392589 11.1925C0.0654315 10.7778 -0.0572525 10.2724 0.0245368 9.67651L0.760641 4.41863C0.865799 3.71758 1.17835 3.13921 1.6983 2.68353C2.21824 2.22784 2.82874 2 3.52979 2H10.4702C11.1713 2 11.7818 2.22784 12.3017 2.68353C12.8216 3.13921 13.1342 3.71758 13.2394 4.41863L13.9755 9.67651C14.0573 10.2724 13.9346 10.7778 13.6074 11.1925C13.2803 11.6073 12.8187 11.8147 12.2228 11.8147C11.9775 11.8147 11.7496 11.7709 11.5393 11.6833C11.329 11.5956 11.1362 11.4642 10.9609 11.2889L9.38358 9.71157H4.61642L3.03906 11.2889C2.8638 11.4642 2.67101 11.5956 2.46069 11.6833C2.25038 11.7709 2.02253 11.8147 1.77717 11.8147ZM2.05759 10.3075L4.05558 8.30946H9.94442L11.9424 10.3075C11.9658 10.3308 12.0593 10.3659 12.2228 10.4126C12.3514 10.4126 12.4536 10.3746 12.5295 10.2987C12.6055 10.2228 12.6318 10.1205 12.6084 9.99199L11.8373 4.59389C11.7905 4.25505 11.6386 3.97171 11.3816 3.74387C11.1245 3.51602 10.8207 3.4021 10.4702 3.4021H3.52979C3.17927 3.4021 2.87548 3.51602 2.61843 3.74387C2.36138 3.97171 2.20948 4.25505 2.16274 4.59389L1.39159 9.99199C1.36822 10.1205 1.39451 10.2228 1.47046 10.2987C1.5464 10.3746 1.64864 10.4126 1.77717 10.4126C1.80053 10.4126 1.89401 10.3776 2.05759 10.3075ZM10.5053 7.60841C10.7039 7.60841 10.8704 7.54123 11.0048 7.40686C11.1391 7.27249 11.2063 7.10599 11.2063 6.90736C11.2063 6.70873 11.1391 6.54223 11.0048 6.40786C10.8704 6.27349 10.7039 6.20631 10.5053 6.20631C10.3066 6.20631 10.1401 6.27349 10.0058 6.40786C9.87139 6.54223 9.80421 6.70873 9.80421 6.90736C9.80421 7.10599 9.87139 7.27249 10.0058 7.40686C10.1401 7.54123 10.3066 7.60841 10.5053 7.60841ZM9.10315 5.50526C9.30179 5.50526 9.46829 5.43807 9.60265 5.30371C9.73702 5.16934 9.80421 5.00284 9.80421 4.80421C9.80421 4.60558 9.73702 4.43908 9.60265 4.30471C9.46829 4.17034 9.30179 4.10315 9.10315 4.10315C8.90452 4.10315 8.73802 4.17034 8.60365 4.30471C8.46929 4.43908 8.4021 4.60558 8.4021 4.80421C8.4021 5.00284 8.46929 5.16934 8.60365 5.30371C8.73802 5.43807 8.90452 5.50526 9.10315 5.50526ZM4.02053 7.60841H5.07211V6.38157H6.29895V5.33H5.07211V4.10315H4.02053V5.33H2.79369V6.38157H4.02053V7.60841Z"/>
</g>

<g id="gift1">
  <path d="M1.33333 14V6.66667H0V2.66667H3.46667C3.41111 2.56667 3.375 2.46111 3.35833 2.35C3.34167 2.23889 3.33333 2.12222 3.33333 2C3.33333 1.44444 3.52778 0.972222 3.91667 0.583333C4.30556 0.194444 4.77778 0 5.33333 0C5.58889 0 5.82778 0.0472222 6.05 0.141667C6.27222 0.236111 6.47778 0.366667 6.66667 0.533333C6.85556 0.355556 7.06111 0.222222 7.28333 0.133333C7.50556 0.0444444 7.74444 0 8 0C8.55556 0 9.02778 0.194444 9.41667 0.583333C9.80556 0.972222 10 1.44444 10 2C10 2.12222 9.98889 2.23611 9.96667 2.34167C9.94445 2.44722 9.91111 2.55556 9.86667 2.66667H13.3333V6.66667H12V14H1.33333ZM8 1.33333C7.81111 1.33333 7.65278 1.39722 7.525 1.525C7.39722 1.65278 7.33333 1.81111 7.33333 2C7.33333 2.18889 7.39722 2.34722 7.525 2.475C7.65278 2.60278 7.81111 2.66667 8 2.66667C8.18889 2.66667 8.34722 2.60278 8.475 2.475C8.60278 2.34722 8.66667 2.18889 8.66667 2C8.66667 1.81111 8.60278 1.65278 8.475 1.525C8.34722 1.39722 8.18889 1.33333 8 1.33333ZM4.66667 2C4.66667 2.18889 4.73056 2.34722 4.85833 2.475C4.98611 2.60278 5.14444 2.66667 5.33333 2.66667C5.52222 2.66667 5.68056 2.60278 5.80833 2.475C5.93611 2.34722 6 2.18889 6 2C6 1.81111 5.93611 1.65278 5.80833 1.525C5.68056 1.39722 5.52222 1.33333 5.33333 1.33333C5.14444 1.33333 4.98611 1.39722 4.85833 1.525C4.73056 1.65278 4.66667 1.81111 4.66667 2ZM1.33333 4V5.33333H6V4H1.33333ZM6 12.6667V6.66667H2.66667V12.6667H6ZM7.33333 12.6667H10.6667V6.66667H7.33333V12.6667ZM12 5.33333V4H7.33333V5.33333H12Z" />
</g>

<g id="cart">
  <path d="M4.17568 14C3.79291 14 3.46524 13.8629 3.19266 13.5887C2.92008 13.3146 2.78379 12.985 2.78379 12.6C2.78379 12.215 2.92008 11.8854 3.19266 11.6112C3.46524 11.3371 3.79291 11.2 4.17568 11.2C4.55845 11.2 4.88613 11.3371 5.15871 11.6112C5.43129 11.8854 5.56758 12.215 5.56758 12.6C5.56758 12.985 5.43129 13.3146 5.15871 13.5887C4.88613 13.8629 4.55845 14 4.17568 14ZM11.1352 14C10.7524 14 10.4247 13.8629 10.1521 13.5887C9.87955 13.3146 9.74326 12.985 9.74326 12.6C9.74326 12.215 9.87955 11.8854 10.1521 11.6112C10.4247 11.3371 10.7524 11.2 11.1352 11.2C11.5179 11.2 11.8456 11.3371 12.1182 11.6112C12.3908 11.8854 12.527 12.215 12.527 12.6C12.527 12.985 12.3908 13.3146 12.1182 13.5887C11.8456 13.8629 11.5179 14 11.1352 14ZM3.58413 2.8L5.2544 6.3H10.126L12.0399 2.8H3.58413ZM2.92298 1.4H13.1882C13.455 1.4 13.658 1.51958 13.7971 1.75875C13.9363 1.99792 13.9421 2.24 13.8145 2.485L11.3439 6.965C11.2163 7.19833 11.0453 7.37917 10.8307 7.5075C10.6161 7.63583 10.3812 7.7 10.126 7.7H4.94122L4.17568 9.1H12.527V10.5H4.17568C3.65372 10.5 3.25935 10.2696 2.99257 9.80875C2.72579 9.34792 2.71419 8.89 2.95777 8.435L3.8973 6.72L1.39189 1.4H0V0H2.26183L2.92298 1.4Z"/>
</g>

<g id="check">
  <path d="M4.89571 12.3282L0 7.43251L1.22393 6.20859L4.89571 9.88037L12.7761 2L14 3.22393L4.89571 12.3282Z"/>
</g>

<g id="upload">
  <path d="M6.125 10.5V3.36875L3.85 5.64375L2.625 4.375L7 0L11.375 4.375L10.15 5.64375L7.875 3.36875V10.5H6.125ZM1.75 14C1.26875 14 0.856771 13.8286 0.514062 13.4859C0.171354 13.1432 0 12.7312 0 12.25V9.625H1.75V12.25H12.25V9.625H14V12.25C14 12.7312 13.8286 13.1432 13.4859 13.4859C13.1432 13.8286 12.7312 14 12.25 14H1.75Z" />
</g>

<g id="receipt_long">
  <path d="M3.08784 14C2.50789 14 2.01492 13.7958 1.60895 13.3875C1.20298 12.9792 1 12.4833 1 11.9V9.8H3.08784V0L4.13176 1.05L5.17568 0L6.2196 1.05L7.26352 0L8.30744 1.05L9.35136 0L10.3953 1.05L11.4392 0L12.4831 1.05L13.527 0V11.9C13.527 12.4833 13.3241 12.9792 12.9181 13.3875C12.5121 13.7958 12.0192 14 11.4392 14H3.08784ZM11.4392 12.6C11.6364 12.6 11.8017 12.5329 11.9351 12.3988C12.0685 12.2646 12.1352 12.0983 12.1352 11.9V2.1H4.47974V9.8H10.7433V11.9C10.7433 12.0983 10.81 12.2646 10.9433 12.3988C11.0767 12.5329 11.242 12.6 11.4392 12.6ZM5.17568 4.9V3.5H9.35136V4.9H5.17568ZM5.17568 7V5.6H9.35136V7H5.17568ZM10.7433 4.9C10.5461 4.9 10.3808 4.83292 10.2474 4.69875C10.114 4.56458 10.0473 4.39833 10.0473 4.2C10.0473 4.00167 10.114 3.83542 10.2474 3.70125C10.3808 3.56708 10.5461 3.5 10.7433 3.5C10.9404 3.5 11.1057 3.56708 11.2391 3.70125C11.3725 3.83542 11.4392 4.00167 11.4392 4.2C11.4392 4.39833 11.3725 4.56458 11.2391 4.69875C11.1057 4.83292 10.9404 4.9 10.7433 4.9ZM10.7433 7C10.5461 7 10.3808 6.93292 10.2474 6.79875C10.114 6.66458 10.0473 6.49833 10.0473 6.3C10.0473 6.10167 10.114 5.93542 10.2474 5.80125C10.3808 5.66708 10.5461 5.6 10.7433 5.6C10.9404 5.6 11.1057 5.66708 11.2391 5.80125C11.3725 5.93542 11.4392 6.10167 11.4392 6.3C11.4392 6.49833 11.3725 6.66458 11.2391 6.79875C11.1057 6.93292 10.9404 7 10.7433 7ZM3.08784 12.6H9.35136V11.2H2.39189V11.9C2.39189 12.0983 2.45859 12.2646 2.59198 12.3988C2.72537 12.5329 2.89066 12.6 3.08784 12.6Z" />
</g>

<g id="tag">
  <path d="M8.58573 13.597C8.31706 13.8657 7.98415 14 7.58698 14C7.18982 14 6.8569 13.8657 6.58824 13.597L0.420526 7.42929C0.292032 7.30079 0.189821 7.14894 0.113892 6.97372C0.0379641 6.7985 0 6.6116 0 6.41302V1.40175C0 1.01627 0.137255 0.686275 0.411765 0.411765C0.686275 0.137255 1.01627 0 1.40175 0H6.41302C6.6116 0 6.7985 0.0379641 6.97372 0.113892C7.14894 0.189821 7.30079 0.292032 7.42929 0.420526L13.597 6.60576C13.8657 6.87443 14 7.20442 14 7.59574C14 7.98707 13.8657 8.31706 13.597 8.58573L8.58573 13.597ZM7.58698 12.6158L12.5982 7.60451L6.41302 1.40175H1.40175V6.41302L7.58698 12.6158ZM3.15394 4.20526C3.44597 4.20526 3.6942 4.10305 3.89862 3.89862C4.10305 3.6942 4.20526 3.44597 4.20526 3.15394C4.20526 2.86191 4.10305 2.61368 3.89862 2.40926C3.6942 2.20484 3.44597 2.10263 3.15394 2.10263C2.86191 2.10263 2.61368 2.20484 2.40926 2.40926C2.20484 2.61368 2.10263 2.86191 2.10263 3.15394C2.10263 3.44597 2.20484 3.6942 2.40926 3.89862C2.61368 4.10305 2.86191 4.20526 3.15394 4.20526Z"/>
</g>

<g id="expand_circle_down">
  <path d="m480-340 180-180-57-56-123 123-123-123-57 56 180 180Zm0 260q-83 0-156-31.5T197-197q-54-54-85.5-127T80-480q0-83 31.5-156T197-763q54-54 127-85.5T480-880q83 0 156 31.5T763-763q54 54 85.5 127T880-480q0 83-31.5 156T763-197q-54 54-127 85.5T480-80Zm0-80q134 0 227-93t93-227q0-134-93-227t-227-93q-134 0-227 93t-93 227q0 134 93 227t227 93Zm0-320Z"/>
</g>

</svg>
