<svg width="113" height="34" viewBox="0 0 113 34" fill="none" xmlns="http://www.w3.org/2000/svg">
<g clip-path="url(#clip0_516_3178)">
<path d="M69.87 26.5619C63.3316 31.3812 53.8547 33.9525 45.6952 33.9525C34.2543 33.9525 23.9545 29.7209 16.1623 22.683C15.5501 22.1295 16.0987 21.3753 16.8333 21.8063C25.2426 26.6991 35.6403 29.6425 46.3809 29.6425C53.6245 29.6425 61.593 28.1439 68.9199 25.0338C70.0267 24.5637 70.9524 25.7587 69.87 26.5619Z" fill="#FF9900"/>
<path d="M72.5879 23.4516C71.7553 22.384 67.0633 22.9472 64.9574 23.197C64.3158 23.2753 64.2178 22.717 64.7957 22.3154C68.5326 19.6854 74.6645 20.4445 75.3796 21.3261C76.0946 22.2125 75.1934 28.3591 71.6818 31.2928C71.1431 31.7434 70.6288 31.5034 70.8688 30.9059C71.6573 28.937 73.4254 24.5242 72.5879 23.4516Z" fill="#FF9900"/>
<path d="M65.1045 3.74847V1.1919C65.1045 0.804985 65.3984 0.54541 65.751 0.54541H77.1968C77.5641 0.54541 77.858 0.809884 77.858 1.1919V3.38115C77.8531 3.74847 77.5445 4.22844 76.996 4.98758L71.065 13.4556C73.2689 13.4018 75.5953 13.7299 77.5935 14.8564C78.0441 15.111 78.1666 15.4832 78.2008 15.8506V18.5786C78.2008 18.9508 77.7894 19.3867 77.3584 19.1614C73.837 17.315 69.1598 17.1142 65.2661 19.181C64.8694 19.3965 64.4531 18.9655 64.4531 18.5933V16.0024C64.4531 15.5861 64.458 14.8759 64.8743 14.2441L71.7457 4.39007H65.7657C65.3984 4.39007 65.1045 4.13049 65.1045 3.74847Z" fill="#221F1F"/>
<path d="M23.3503 19.7001H19.8681C19.5351 19.6757 19.2706 19.4259 19.2461 19.1075V1.236C19.2461 0.878471 19.5449 0.594405 19.9171 0.594405H23.1642C23.5022 0.609088 23.7715 0.868673 23.796 1.19192V3.5281H23.8597C24.707 1.27028 26.2987 0.217285 28.4439 0.217285C30.6233 0.217285 31.9849 1.27028 32.9644 3.5281C33.8068 1.27028 35.7218 0.217285 37.7739 0.217285C39.2334 0.217285 40.83 0.819696 41.8047 2.17145C42.9067 3.67503 42.6814 5.85938 42.6814 7.77436L42.6765 19.0537C42.6765 19.4112 42.3777 19.7001 42.0055 19.7001H38.5282C38.1804 19.6757 37.9013 19.3965 37.9013 19.0537V9.5816C37.9013 8.82736 37.9698 6.94666 37.8033 6.2316C37.5437 5.03168 36.765 4.69374 35.7561 4.69374C34.9137 4.69374 34.0321 5.25697 33.6746 6.15814C33.317 7.05931 33.3513 8.56778 33.3513 9.5816V19.0537C33.3513 19.4112 33.0526 19.7001 32.6804 19.7001H29.203C28.8504 19.6757 28.5761 19.3965 28.5761 19.0537L28.5712 9.5816C28.5712 7.58825 28.8994 4.65456 26.4261 4.65456C23.9233 4.65456 24.0213 7.51479 24.0213 9.5816V19.0537C24.0213 19.4112 23.7225 19.7001 23.3503 19.7001Z" fill="#221F1F"/>
<path d="M87.7113 0.217285C92.8783 0.217285 95.6748 4.65456 95.6748 10.2967C95.6748 15.7477 92.5844 20.0724 87.7113 20.0724C82.6373 20.0724 79.875 15.6351 79.875 10.1056C79.875 4.54191 82.6716 0.217285 87.7113 0.217285ZM87.7406 3.86604C85.1743 3.86604 85.0126 7.36296 85.0126 9.54242C85.0126 11.7268 84.9784 16.3893 87.7113 16.3893C90.4099 16.3893 90.5372 12.6279 90.5372 10.3358C90.5372 8.82736 90.4735 7.02502 90.018 5.59491C89.6262 4.35091 88.8475 3.86604 87.7406 3.86604Z" fill="#221F1F"/>
<path d="M102.377 19.7001H98.9091C98.5614 19.6757 98.2822 19.3965 98.2822 19.0537L98.2773 1.17722C98.3067 0.849082 98.5957 0.594405 98.9483 0.594405H102.176C102.48 0.609088 102.729 0.8148 102.798 1.09397V3.82685H102.862C103.836 1.38293 105.203 0.217285 107.607 0.217285C109.17 0.217285 110.693 0.780516 111.672 2.32328C112.583 3.75339 112.583 6.15814 112.583 7.88701V19.1369C112.544 19.4504 112.255 19.7001 111.912 19.7001H108.42C108.102 19.6757 107.838 19.4406 107.803 19.1369V9.42977C107.803 7.47561 108.029 4.61538 105.624 4.61538C104.777 4.61538 103.998 5.18351 103.611 6.04549C103.121 7.13767 103.057 8.22495 103.057 9.42977V19.0537C103.053 19.4112 102.749 19.7001 102.377 19.7001Z" fill="#221F1F"/>
<path d="M55.9793 11.1636V10.4093C53.4619 10.4093 50.8025 10.9481 50.8025 13.916C50.8025 15.4196 51.5812 16.4383 52.9183 16.4383C53.8978 16.4383 54.7745 15.8359 55.3279 14.8564C56.0136 13.6516 55.9793 12.5202 55.9793 11.1636ZM59.4909 19.6512C59.2608 19.8569 58.9277 19.8716 58.6681 19.7345C57.5123 18.7745 57.3066 18.3288 56.6699 17.413C54.7598 19.3622 53.4081 19.9451 50.9298 19.9451C48.0011 19.9451 45.7188 18.1378 45.7188 14.5185C45.7188 11.6925 47.2517 9.76774 49.4312 8.82739C51.3217 7.99479 53.9615 7.84786 55.9793 7.61767V7.16709C55.9793 6.33938 56.043 5.35985 55.5581 4.6448C55.132 4.0032 54.319 3.73873 53.604 3.73873C52.2767 3.73873 51.0915 4.4195 50.8025 5.83003C50.7437 6.14348 50.5135 6.45203 50.2001 6.46672L46.8207 6.10429C46.5367 6.04063 46.2232 5.81043 46.3016 5.37455C47.0803 1.28011 50.778 0.0458984 54.0888 0.0458984C55.7834 0.0458984 57.9972 0.496482 59.3342 1.77967C61.0288 3.36161 60.8672 5.4725 60.8672 7.7695V13.1961C60.8672 14.827 61.5431 15.5421 62.1798 16.4237C62.405 16.7371 62.454 17.1142 62.17 17.3493C61.4598 17.9419 60.1962 19.0439 59.5007 19.661L59.4909 19.6512Z" fill="#221F1F"/>
<path d="M10.327 11.1636V10.4093C7.80959 10.4093 5.15017 10.9481 5.15017 13.916C5.15017 15.4196 5.92889 16.4383 7.26595 16.4383C8.24548 16.4383 9.12216 15.8359 9.6756 14.8564C10.3613 13.6516 10.327 12.5202 10.327 11.1636ZM13.8386 19.6512C13.6084 19.8569 13.2754 19.8716 13.0158 19.7345C11.86 18.7745 11.6542 18.3288 11.0176 17.413C9.10747 19.3622 7.75572 19.9451 5.27751 19.9451C2.34871 19.9451 0.0664062 18.1378 0.0664062 14.5185C0.0664062 11.6925 1.59937 9.76774 3.77882 8.82739C5.66932 7.99479 8.30915 7.84786 10.327 7.61767V7.16709C10.327 6.33938 10.3907 5.35985 9.90579 4.6448C9.47969 4.0032 8.66668 3.73873 7.95162 3.73873C6.62436 3.73873 5.43913 4.4195 5.15017 5.83003C5.09139 6.14348 4.86121 6.45203 4.54776 6.46672L1.16838 6.10429C0.884314 6.04063 0.570863 5.81043 0.649226 5.37455C1.42795 1.28011 5.12568 0.0458984 8.43649 0.0458984C10.1311 0.0458984 12.3448 0.496482 13.6819 1.77967C15.3765 3.36161 15.2148 5.4725 15.2148 7.7695V13.1961C15.2148 14.827 15.8907 15.5421 16.5274 16.4237C16.7527 16.7371 16.8017 17.1142 16.5176 17.3493C15.8075 17.9419 14.5439 19.0439 13.8484 19.661L13.8386 19.6512Z" fill="#221F1F"/>
</g>
<defs>
<clipPath id="clip0_516_3178">
<rect width="112.648" height="34" fill="white"/>
</clipPath>
</defs>
</svg>
