<svg width="45" height="45" viewBox="0 0 45 45" fill="none" xmlns="http://www.w3.org/2000/svg">
<path d="M29.7812 20.1211C29.7812 20.8503 29.6491 21.5475 29.3848 22.2129C29.1204 22.8691 28.7695 23.4889 28.332 24.0723C27.9036 24.6465 27.4115 25.1797 26.8555 25.6719C26.3086 26.1549 25.7526 26.5924 25.1875 26.9844H29.5078L29.1797 32.6719L16.3828 32.2344V27.2578C16.8659 27.0938 17.3717 26.8978 17.9004 26.6699C18.4382 26.4329 18.9622 26.1641 19.4727 25.8633C19.9922 25.5625 20.4798 25.2253 20.9355 24.8516C21.4004 24.4779 21.806 24.0723 22.1523 23.6348C22.5078 23.1882 22.7858 22.7051 22.9863 22.1855C23.196 21.666 23.3008 21.1055 23.3008 20.5039C23.3008 20.1576 23.237 19.8522 23.1094 19.5879C22.9909 19.3236 22.8223 19.1048 22.6035 18.9316C22.3848 18.7493 22.1296 18.6172 21.8379 18.5352C21.5553 18.444 21.25 18.3984 20.9219 18.3984C20.6484 18.3984 20.3704 18.4303 20.0879 18.4941C19.8053 18.5488 19.5273 18.6309 19.2539 18.7402C18.9805 18.8496 18.7207 18.9863 18.4746 19.1504C18.2376 19.3053 18.0234 19.4831 17.832 19.6836L16.6289 14.3242C16.9661 13.987 17.3535 13.7044 17.791 13.4766C18.2285 13.2487 18.6888 13.0664 19.1719 12.9297C19.6549 12.7839 20.1471 12.679 20.6484 12.6152C21.1497 12.5514 21.6419 12.5195 22.125 12.5195C23.2005 12.5195 24.2031 12.7155 25.1328 13.1074C26.0625 13.4902 26.8691 14.0234 27.5527 14.707C28.2454 15.3815 28.7878 16.1836 29.1797 17.1133C29.5807 18.043 29.7812 19.0456 29.7812 20.1211Z" fill="url(#paint0_linear_409_920)" fill-opacity="0.96"/>
<path d="M29.7812 20.1211C29.7812 20.8503 29.6491 21.5475 29.3848 22.2129C29.1204 22.8691 28.7695 23.4889 28.332 24.0723C27.9036 24.6465 27.4115 25.1797 26.8555 25.6719C26.3086 26.1549 25.7526 26.5924 25.1875 26.9844H29.5078L29.1797 32.6719L16.3828 32.2344V27.2578C16.8659 27.0938 17.3717 26.8978 17.9004 26.6699C18.4382 26.4329 18.9622 26.1641 19.4727 25.8633C19.9922 25.5625 20.4798 25.2253 20.9355 24.8516C21.4004 24.4779 21.806 24.0723 22.1523 23.6348C22.5078 23.1882 22.7858 22.7051 22.9863 22.1855C23.196 21.666 23.3008 21.1055 23.3008 20.5039C23.3008 20.1576 23.237 19.8522 23.1094 19.5879C22.9909 19.3236 22.8223 19.1048 22.6035 18.9316C22.3848 18.7493 22.1296 18.6172 21.8379 18.5352C21.5553 18.444 21.25 18.3984 20.9219 18.3984C20.6484 18.3984 20.3704 18.4303 20.0879 18.4941C19.8053 18.5488 19.5273 18.6309 19.2539 18.7402C18.9805 18.8496 18.7207 18.9863 18.4746 19.1504C18.2376 19.3053 18.0234 19.4831 17.832 19.6836L16.6289 14.3242C16.9661 13.987 17.3535 13.7044 17.791 13.4766C18.2285 13.2487 18.6888 13.0664 19.1719 12.9297C19.6549 12.7839 20.1471 12.679 20.6484 12.6152C21.1497 12.5514 21.6419 12.5195 22.125 12.5195C23.2005 12.5195 24.2031 12.7155 25.1328 13.1074C26.0625 13.4902 26.8691 14.0234 27.5527 14.707C28.2454 15.3815 28.7878 16.1836 29.1797 17.1133C29.5807 18.043 29.7812 19.0456 29.7812 20.1211Z" fill="#D96F04"/>
<path d="M43.2461 9.77734L42.4805 15.5469C42.2161 15.474 41.9518 15.4238 41.6875 15.3965C41.4232 15.3691 41.1589 15.3555 40.8945 15.3555C40.2201 15.3555 39.5775 15.4466 38.9668 15.6289C38.3561 15.8021 37.8138 16.071 37.3398 16.4355C36.875 16.8001 36.5013 17.2559 36.2188 17.8027C35.9453 18.3496 35.8086 18.9922 35.8086 19.7305C35.8086 20.2044 35.8815 20.6146 36.0273 20.9609C36.1823 21.3073 36.3965 21.5944 36.6699 21.8223C36.9434 22.0501 37.2669 22.2188 37.6406 22.3281C38.0143 22.4375 38.4245 22.4922 38.8711 22.4922C39.2083 22.4922 39.5592 22.4557 39.9238 22.3828C40.2884 22.3099 40.6484 22.2142 41.0039 22.0957C41.3594 21.9772 41.7057 21.8405 42.043 21.6855C42.3802 21.5306 42.6901 21.3711 42.9727 21.207L42.4258 27.6328C42.0703 27.8151 41.6829 27.9792 41.2637 28.125C40.8535 28.2617 40.4297 28.3848 39.9922 28.4941C39.5547 28.5944 39.1172 28.6719 38.6797 28.7266C38.2422 28.7812 37.8229 28.8086 37.4219 28.8086C36.2643 28.8086 35.1842 28.5944 34.1816 28.166C33.179 27.7376 32.3086 27.1497 31.5703 26.4023C30.832 25.6549 30.2487 24.7754 29.8203 23.7637C29.401 22.7428 29.1914 21.6445 29.1914 20.4688C29.1914 18.9102 29.4147 17.4427 29.8613 16.0664C30.3079 14.681 30.9642 13.4688 31.8301 12.4297C32.696 11.3906 33.7669 10.5703 35.043 9.96875C36.3281 9.36719 37.8047 9.06641 39.4727 9.06641C40.1016 9.06641 40.7441 9.11654 41.4004 9.2168C42.0658 9.31706 42.681 9.50391 43.2461 9.77734Z" fill="#D96F04"/>
<path d="M43.2461 9.77734L42.4805 15.5469C42.2161 15.474 41.9518 15.4238 41.6875 15.3965C41.4232 15.3691 41.1589 15.3555 40.8945 15.3555C40.2201 15.3555 39.5775 15.4466 38.9668 15.6289C38.3561 15.8021 37.8138 16.071 37.3398 16.4355C36.875 16.8001 36.5013 17.2559 36.2188 17.8027C35.9453 18.3496 35.8086 18.9922 35.8086 19.7305C35.8086 20.2044 35.8815 20.6146 36.0273 20.9609C36.1823 21.3073 36.3965 21.5944 36.6699 21.8223C36.9434 22.0501 37.2669 22.2188 37.6406 22.3281C38.0143 22.4375 38.4245 22.4922 38.8711 22.4922C39.2083 22.4922 39.5592 22.4557 39.9238 22.3828C40.2884 22.3099 40.6484 22.2142 41.0039 22.0957C41.3594 21.9772 41.7057 21.8405 42.043 21.6855C42.3802 21.5306 42.6901 21.3711 42.9727 21.207L42.4258 27.6328C42.0703 27.8151 41.6829 27.9792 41.2637 28.125C40.8535 28.2617 40.4297 28.3848 39.9922 28.4941C39.5547 28.5944 39.1172 28.6719 38.6797 28.7266C38.2422 28.7812 37.8229 28.8086 37.4219 28.8086C36.2643 28.8086 35.1842 28.5944 34.1816 28.166C33.179 27.7376 32.3086 27.1497 31.5703 26.4023C30.832 25.6549 30.2487 24.7754 29.8203 23.7637C29.401 22.7428 29.1914 21.6445 29.1914 20.4688C29.1914 18.9102 29.4147 17.4427 29.8613 16.0664C30.3079 14.681 30.9642 13.4688 31.8301 12.4297C32.696 11.3906 33.7669 10.5703 35.043 9.96875C36.3281 9.36719 37.8047 9.06641 39.4727 9.06641C40.1016 9.06641 40.7441 9.11654 41.4004 9.2168C42.0658 9.31706 42.681 9.50391 43.2461 9.77734Z" fill="url(#paint1_linear_409_920)" fill-opacity="0.96"/>
<path d="M16.6973 29.7266C16.6973 30.9753 16.4785 32.069 16.041 33.0078C15.6126 33.9375 15.0202 34.7122 14.2637 35.332C13.5163 35.9518 12.6367 36.4167 11.625 36.7266C10.6224 37.0365 9.54232 37.1914 8.38477 37.1914C7.93815 37.1914 7.44596 37.1322 6.9082 37.0137C6.37956 36.8952 5.8418 36.7493 5.29492 36.5762C4.74805 36.3939 4.2194 36.2025 3.70898 36.002C3.20768 35.7923 2.76107 35.5964 2.36914 35.4141L2.9707 29.7812C3.74544 30.2461 4.60221 30.6016 5.54102 30.8477C6.48893 31.0846 7.41862 31.2031 8.33008 31.2031C8.50326 31.2031 8.71289 31.1986 8.95898 31.1895C9.20508 31.1712 9.4375 31.1302 9.65625 31.0664C9.88411 30.9935 10.0755 30.8887 10.2305 30.752C10.3854 30.6152 10.4629 30.4193 10.4629 30.1641C10.4629 29.9909 10.4082 29.8451 10.2988 29.7266C10.1895 29.599 10.0482 29.4987 9.875 29.4258C9.70182 29.3438 9.50586 29.2845 9.28711 29.248C9.06836 29.2025 8.85417 29.1706 8.64453 29.1523C8.4349 29.1341 8.23893 29.125 8.05664 29.125C7.87435 29.125 7.72852 29.125 7.61914 29.125C6.83529 29.125 6.11979 28.9883 5.47266 28.7148C4.83464 28.4414 4.2832 28.0632 3.81836 27.5801C3.36263 27.0879 3.00716 26.5091 2.75195 25.8438C2.49674 25.1693 2.36914 24.4401 2.36914 23.6562C2.36914 22.5807 2.58333 21.6191 3.01172 20.7715C3.44922 19.9147 4.02799 19.1901 4.74805 18.5977C5.47721 17.9961 6.3112 17.5358 7.25 17.2168C8.1888 16.8978 9.15951 16.7383 10.1621 16.7383C10.6087 16.7383 11.069 16.7565 11.543 16.793C12.0169 16.8203 12.4863 16.875 12.9512 16.957C13.4251 17.0391 13.8854 17.1439 14.332 17.2715C14.7786 17.3991 15.2025 17.5586 15.6035 17.75L15.084 23.3008C14.4642 23.0911 13.8125 22.918 13.1289 22.7812C12.4544 22.6354 11.7936 22.5625 11.1465 22.5625C11.028 22.5625 10.873 22.5671 10.6816 22.5762C10.4993 22.5762 10.3034 22.5898 10.0938 22.6172C9.89323 22.6354 9.68815 22.6673 9.47852 22.7129C9.26888 22.7585 9.08203 22.8223 8.91797 22.9043C8.75391 22.9772 8.62174 23.0775 8.52148 23.2051C8.42122 23.3327 8.37565 23.4831 8.38477 23.6562C8.39388 23.8568 8.4668 24.0208 8.60352 24.1484C8.74935 24.2669 8.93164 24.3626 9.15039 24.4355C9.37826 24.4993 9.62435 24.5449 9.88867 24.5723C10.1621 24.5996 10.431 24.6178 10.6953 24.627C10.9596 24.627 11.2057 24.627 11.4336 24.627C11.6615 24.6178 11.8483 24.6224 11.9941 24.6406C12.7233 24.6862 13.3796 24.8411 13.9629 25.1055C14.5462 25.3698 15.0384 25.7207 15.4395 26.1582C15.8496 26.5957 16.1595 27.1198 16.3691 27.7305C16.5879 28.332 16.6973 28.9974 16.6973 29.7266Z" fill="#D96F04"/>
<path d="M16.6973 29.7266C16.6973 30.9753 16.4785 32.069 16.041 33.0078C15.6126 33.9375 15.0202 34.7122 14.2637 35.332C13.5163 35.9518 12.6367 36.4167 11.625 36.7266C10.6224 37.0365 9.54232 37.1914 8.38477 37.1914C7.93815 37.1914 7.44596 37.1322 6.9082 37.0137C6.37956 36.8952 5.8418 36.7493 5.29492 36.5762C4.74805 36.3939 4.2194 36.2025 3.70898 36.002C3.20768 35.7923 2.76107 35.5964 2.36914 35.4141L2.9707 29.7812C3.74544 30.2461 4.60221 30.6016 5.54102 30.8477C6.48893 31.0846 7.41862 31.2031 8.33008 31.2031C8.50326 31.2031 8.71289 31.1986 8.95898 31.1895C9.20508 31.1712 9.4375 31.1302 9.65625 31.0664C9.88411 30.9935 10.0755 30.8887 10.2305 30.752C10.3854 30.6152 10.4629 30.4193 10.4629 30.1641C10.4629 29.9909 10.4082 29.8451 10.2988 29.7266C10.1895 29.599 10.0482 29.4987 9.875 29.4258C9.70182 29.3438 9.50586 29.2845 9.28711 29.248C9.06836 29.2025 8.85417 29.1706 8.64453 29.1523C8.4349 29.1341 8.23893 29.125 8.05664 29.125C7.87435 29.125 7.72852 29.125 7.61914 29.125C6.83529 29.125 6.11979 28.9883 5.47266 28.7148C4.83464 28.4414 4.2832 28.0632 3.81836 27.5801C3.36263 27.0879 3.00716 26.5091 2.75195 25.8438C2.49674 25.1693 2.36914 24.4401 2.36914 23.6562C2.36914 22.5807 2.58333 21.6191 3.01172 20.7715C3.44922 19.9147 4.02799 19.1901 4.74805 18.5977C5.47721 17.9961 6.3112 17.5358 7.25 17.2168C8.1888 16.8978 9.15951 16.7383 10.1621 16.7383C10.6087 16.7383 11.069 16.7565 11.543 16.793C12.0169 16.8203 12.4863 16.875 12.9512 16.957C13.4251 17.0391 13.8854 17.1439 14.332 17.2715C14.7786 17.3991 15.2025 17.5586 15.6035 17.75L15.084 23.3008C14.4642 23.0911 13.8125 22.918 13.1289 22.7812C12.4544 22.6354 11.7936 22.5625 11.1465 22.5625C11.028 22.5625 10.873 22.5671 10.6816 22.5762C10.4993 22.5762 10.3034 22.5898 10.0938 22.6172C9.89323 22.6354 9.68815 22.6673 9.47852 22.7129C9.26888 22.7585 9.08203 22.8223 8.91797 22.9043C8.75391 22.9772 8.62174 23.0775 8.52148 23.2051C8.42122 23.3327 8.37565 23.4831 8.38477 23.6562C8.39388 23.8568 8.4668 24.0208 8.60352 24.1484C8.74935 24.2669 8.93164 24.3626 9.15039 24.4355C9.37826 24.4993 9.62435 24.5449 9.88867 24.5723C10.1621 24.5996 10.431 24.6178 10.6953 24.627C10.9596 24.627 11.2057 24.627 11.4336 24.627C11.6615 24.6178 11.8483 24.6224 11.9941 24.6406C12.7233 24.6862 13.3796 24.8411 13.9629 25.1055C14.5462 25.3698 15.0384 25.7207 15.4395 26.1582C15.8496 26.5957 16.1595 27.1198 16.3691 27.7305C16.5879 28.332 16.6973 28.9974 16.6973 29.7266Z" fill="url(#paint2_linear_409_920)" fill-opacity="0.96"/>
<defs>
<linearGradient id="paint0_linear_409_920" x1="27.1103" y1="33" x2="14.8279" y2="31.5868" gradientUnits="userSpaceOnUse">
<stop stop-color="#3C096C"/>
<stop offset="1" stop-color="#621CA3"/>
</linearGradient>
<linearGradient id="paint1_linear_409_920" x1="40.1103" y1="29" x2="27.8279" y2="27.5868" gradientUnits="userSpaceOnUse">
<stop stop-color="#3C096C"/>
<stop offset="1" stop-color="#621CA3"/>
</linearGradient>
<linearGradient id="paint2_linear_409_920" x1="13.1103" y1="37" x2="0.827882" y2="35.5868" gradientUnits="userSpaceOnUse">
<stop stop-color="#3C096C"/>
<stop offset="1" stop-color="#621CA3"/>
</linearGradient>
</defs>
</svg>
