<svg width="45" height="45" viewBox="0 0 45 45" fill="none" xmlns="http://www.w3.org/2000/svg">
<rect width="45" height="45" rx="16" fill="white" fill-opacity="0.2"/>
<path d="M15.6973 24.7266C15.6973 25.9753 15.4785 27.069 15.041 28.0078C14.6126 28.9375 14.0202 29.7122 13.2637 30.332C12.5163 30.9518 11.6367 31.4167 10.625 31.7266C9.6224 32.0365 8.54232 32.1914 7.38477 32.1914C6.93815 32.1914 6.44596 32.1322 5.9082 32.0137C5.37956 31.8952 4.8418 31.7493 4.29492 31.5762C3.74805 31.3939 3.2194 31.2025 2.70898 31.002C2.20768 30.7923 1.76107 30.5964 1.36914 30.4141L1.9707 24.7812C2.74544 25.2461 3.60221 25.6016 4.54102 25.8477C5.48893 26.0846 6.41862 26.2031 7.33008 26.2031C7.50326 26.2031 7.71289 26.1986 7.95898 26.1895C8.20508 26.1712 8.4375 26.1302 8.65625 26.0664C8.88411 25.9935 9.07552 25.8887 9.23047 25.752C9.38542 25.6152 9.46289 25.4193 9.46289 25.1641C9.46289 24.9909 9.4082 24.8451 9.29883 24.7266C9.18945 24.599 9.04818 24.4987 8.875 24.4258C8.70182 24.3438 8.50586 24.2845 8.28711 24.248C8.06836 24.2025 7.85417 24.1706 7.64453 24.1523C7.4349 24.1341 7.23893 24.125 7.05664 24.125C6.87435 24.125 6.72852 24.125 6.61914 24.125C5.83529 24.125 5.11979 23.9883 4.47266 23.7148C3.83464 23.4414 3.2832 23.0632 2.81836 22.5801C2.36263 22.0879 2.00716 21.5091 1.75195 20.8438C1.49674 20.1693 1.36914 19.4401 1.36914 18.6562C1.36914 17.5807 1.58333 16.6191 2.01172 15.7715C2.44922 14.9147 3.02799 14.1901 3.74805 13.5977C4.47721 12.9961 5.3112 12.5358 6.25 12.2168C7.1888 11.8978 8.15951 11.7383 9.16211 11.7383C9.60872 11.7383 10.069 11.7565 10.543 11.793C11.0169 11.8203 11.4863 11.875 11.9512 11.957C12.4251 12.0391 12.8854 12.1439 13.332 12.2715C13.7786 12.3991 14.2025 12.5586 14.6035 12.75L14.084 18.3008C13.4642 18.0911 12.8125 17.918 12.1289 17.7812C11.4544 17.6354 10.7936 17.5625 10.1465 17.5625C10.028 17.5625 9.87305 17.5671 9.68164 17.5762C9.49935 17.5762 9.30339 17.5898 9.09375 17.6172C8.89323 17.6354 8.68815 17.6673 8.47852 17.7129C8.26888 17.7585 8.08203 17.8223 7.91797 17.9043C7.75391 17.9772 7.62174 18.0775 7.52148 18.2051C7.42122 18.3327 7.37565 18.4831 7.38477 18.6562C7.39388 18.8568 7.4668 19.0208 7.60352 19.1484C7.74935 19.2669 7.93164 19.3626 8.15039 19.4355C8.37826 19.4993 8.62435 19.5449 8.88867 19.5723C9.16211 19.5996 9.43099 19.6178 9.69531 19.627C9.95964 19.627 10.2057 19.627 10.4336 19.627C10.6615 19.6178 10.8483 19.6224 10.9941 19.6406C11.7233 19.6862 12.3796 19.8411 12.9629 20.1055C13.5462 20.3698 14.0384 20.7207 14.4395 21.1582C14.8496 21.5957 15.1595 22.1198 15.3691 22.7305C15.5879 23.332 15.6973 23.9974 15.6973 24.7266ZM44.3945 12.7773L43.6289 18.5469C43.3646 18.474 43.1003 18.4238 42.8359 18.3965C42.5716 18.3691 42.3073 18.3555 42.043 18.3555C41.3685 18.3555 40.7259 18.4466 40.1152 18.6289C39.5046 18.8021 38.9622 19.071 38.4883 19.4355C38.0234 19.8001 37.6497 20.2559 37.3672 20.8027C37.0938 21.3496 36.957 21.9922 36.957 22.7305C36.957 23.2044 37.0299 23.6146 37.1758 23.9609C37.3307 24.3073 37.5449 24.5944 37.8184 24.8223C38.0918 25.0501 38.4154 25.2188 38.7891 25.3281C39.1628 25.4375 39.5729 25.4922 40.0195 25.4922C40.3568 25.4922 40.7077 25.4557 41.0723 25.3828C41.4368 25.3099 41.7969 25.2142 42.1523 25.0957C42.5078 24.9772 42.8542 24.8405 43.1914 24.6855C43.5286 24.5306 43.8385 24.3711 44.1211 24.207L43.5742 30.6328C43.2188 30.8151 42.8314 30.9792 42.4121 31.125C42.002 31.2617 41.5781 31.3848 41.1406 31.4941C40.7031 31.5944 40.2656 31.6719 39.8281 31.7266C39.3906 31.7812 38.9714 31.8086 38.5703 31.8086C37.4128 31.8086 36.3327 31.5944 35.3301 31.166C34.3275 30.7376 33.457 30.1497 32.7188 29.4023C31.9805 28.6549 31.3971 27.7754 30.9688 26.7637C30.5495 25.7428 30.3398 24.6445 30.3398 23.4688C30.3398 21.9102 30.5632 20.4427 31.0098 19.0664C31.4564 17.681 32.1126 16.4688 32.9785 15.4297C33.8444 14.3906 34.9154 13.5703 36.1914 12.9688C37.4766 12.3672 38.9531 12.0664 40.6211 12.0664C41.25 12.0664 41.8926 12.1165 42.5488 12.2168C43.2142 12.3171 43.8294 12.5039 44.3945 12.7773Z" fill="#D96F04"/>
<path d="M15.6973 24.7266C15.6973 25.9753 15.4785 27.069 15.041 28.0078C14.6126 28.9375 14.0202 29.7122 13.2637 30.332C12.5163 30.9518 11.6367 31.4167 10.625 31.7266C9.6224 32.0365 8.54232 32.1914 7.38477 32.1914C6.93815 32.1914 6.44596 32.1322 5.9082 32.0137C5.37956 31.8952 4.8418 31.7493 4.29492 31.5762C3.74805 31.3939 3.2194 31.2025 2.70898 31.002C2.20768 30.7923 1.76107 30.5964 1.36914 30.4141L1.9707 24.7812C2.74544 25.2461 3.60221 25.6016 4.54102 25.8477C5.48893 26.0846 6.41862 26.2031 7.33008 26.2031C7.50326 26.2031 7.71289 26.1986 7.95898 26.1895C8.20508 26.1712 8.4375 26.1302 8.65625 26.0664C8.88411 25.9935 9.07552 25.8887 9.23047 25.752C9.38542 25.6152 9.46289 25.4193 9.46289 25.1641C9.46289 24.9909 9.4082 24.8451 9.29883 24.7266C9.18945 24.599 9.04818 24.4987 8.875 24.4258C8.70182 24.3438 8.50586 24.2845 8.28711 24.248C8.06836 24.2025 7.85417 24.1706 7.64453 24.1523C7.4349 24.1341 7.23893 24.125 7.05664 24.125C6.87435 24.125 6.72852 24.125 6.61914 24.125C5.83529 24.125 5.11979 23.9883 4.47266 23.7148C3.83464 23.4414 3.2832 23.0632 2.81836 22.5801C2.36263 22.0879 2.00716 21.5091 1.75195 20.8438C1.49674 20.1693 1.36914 19.4401 1.36914 18.6562C1.36914 17.5807 1.58333 16.6191 2.01172 15.7715C2.44922 14.9147 3.02799 14.1901 3.74805 13.5977C4.47721 12.9961 5.3112 12.5358 6.25 12.2168C7.1888 11.8978 8.15951 11.7383 9.16211 11.7383C9.60872 11.7383 10.069 11.7565 10.543 11.793C11.0169 11.8203 11.4863 11.875 11.9512 11.957C12.4251 12.0391 12.8854 12.1439 13.332 12.2715C13.7786 12.3991 14.2025 12.5586 14.6035 12.75L14.084 18.3008C13.4642 18.0911 12.8125 17.918 12.1289 17.7812C11.4544 17.6354 10.7936 17.5625 10.1465 17.5625C10.028 17.5625 9.87305 17.5671 9.68164 17.5762C9.49935 17.5762 9.30339 17.5898 9.09375 17.6172C8.89323 17.6354 8.68815 17.6673 8.47852 17.7129C8.26888 17.7585 8.08203 17.8223 7.91797 17.9043C7.75391 17.9772 7.62174 18.0775 7.52148 18.2051C7.42122 18.3327 7.37565 18.4831 7.38477 18.6562C7.39388 18.8568 7.4668 19.0208 7.60352 19.1484C7.74935 19.2669 7.93164 19.3626 8.15039 19.4355C8.37826 19.4993 8.62435 19.5449 8.88867 19.5723C9.16211 19.5996 9.43099 19.6178 9.69531 19.627C9.95964 19.627 10.2057 19.627 10.4336 19.627C10.6615 19.6178 10.8483 19.6224 10.9941 19.6406C11.7233 19.6862 12.3796 19.8411 12.9629 20.1055C13.5462 20.3698 14.0384 20.7207 14.4395 21.1582C14.8496 21.5957 15.1595 22.1198 15.3691 22.7305C15.5879 23.332 15.6973 23.9974 15.6973 24.7266ZM44.3945 12.7773L43.6289 18.5469C43.3646 18.474 43.1003 18.4238 42.8359 18.3965C42.5716 18.3691 42.3073 18.3555 42.043 18.3555C41.3685 18.3555 40.7259 18.4466 40.1152 18.6289C39.5046 18.8021 38.9622 19.071 38.4883 19.4355C38.0234 19.8001 37.6497 20.2559 37.3672 20.8027C37.0938 21.3496 36.957 21.9922 36.957 22.7305C36.957 23.2044 37.0299 23.6146 37.1758 23.9609C37.3307 24.3073 37.5449 24.5944 37.8184 24.8223C38.0918 25.0501 38.4154 25.2188 38.7891 25.3281C39.1628 25.4375 39.5729 25.4922 40.0195 25.4922C40.3568 25.4922 40.7077 25.4557 41.0723 25.3828C41.4368 25.3099 41.7969 25.2142 42.1523 25.0957C42.5078 24.9772 42.8542 24.8405 43.1914 24.6855C43.5286 24.5306 43.8385 24.3711 44.1211 24.207L43.5742 30.6328C43.2188 30.8151 42.8314 30.9792 42.4121 31.125C42.002 31.2617 41.5781 31.3848 41.1406 31.4941C40.7031 31.5944 40.2656 31.6719 39.8281 31.7266C39.3906 31.7812 38.9714 31.8086 38.5703 31.8086C37.4128 31.8086 36.3327 31.5944 35.3301 31.166C34.3275 30.7376 33.457 30.1497 32.7188 29.4023C31.9805 28.6549 31.3971 27.7754 30.9688 26.7637C30.5495 25.7428 30.3398 24.6445 30.3398 23.4688C30.3398 21.9102 30.5632 20.4427 31.0098 19.0664C31.4564 17.681 32.1126 16.4688 32.9785 15.4297C33.8444 14.3906 34.9154 13.5703 36.1914 12.9688C37.4766 12.3672 38.9531 12.0664 40.6211 12.0664C41.25 12.0664 41.8926 12.1165 42.5488 12.2168C43.2142 12.3171 43.8294 12.5039 44.3945 12.7773Z" fill="url(#paint0_linear_401_910)" fill-opacity="0.96"/>
<path d="M29.6562 19.1211C29.6562 19.8503 29.5241 20.5475 29.2598 21.2129C28.9954 21.8691 28.6445 22.4889 28.207 23.0723C27.7786 23.6465 27.2865 24.1797 26.7305 24.6719C26.1836 25.1549 25.6276 25.5924 25.0625 25.9844H29.3828L29.0547 31.6719L16.2578 31.2344V26.2578C16.7409 26.0938 17.2467 25.8978 17.7754 25.6699C18.3132 25.4329 18.8372 25.1641 19.3477 24.8633C19.8672 24.5625 20.3548 24.2253 20.8105 23.8516C21.2754 23.4779 21.681 23.0723 22.0273 22.6348C22.3828 22.1882 22.6608 21.7051 22.8613 21.1855C23.071 20.666 23.1758 20.1055 23.1758 19.5039C23.1758 19.1576 23.112 18.8522 22.9844 18.5879C22.8659 18.3236 22.6973 18.1048 22.4785 17.9316C22.2598 17.7493 22.0046 17.6172 21.7129 17.5352C21.4303 17.444 21.125 17.3984 20.7969 17.3984C20.5234 17.3984 20.2454 17.4303 19.9629 17.4941C19.6803 17.5488 19.4023 17.6309 19.1289 17.7402C18.8555 17.8496 18.5957 17.9863 18.3496 18.1504C18.1126 18.3053 17.8984 18.4831 17.707 18.6836L16.5039 13.3242C16.8411 12.987 17.2285 12.7044 17.666 12.4766C18.1035 12.2487 18.5638 12.0664 19.0469 11.9297C19.5299 11.7839 20.0221 11.679 20.5234 11.6152C21.0247 11.5514 21.5169 11.5195 22 11.5195C23.0755 11.5195 24.0781 11.7155 25.0078 12.1074C25.9375 12.4902 26.7441 13.0234 27.4277 13.707C28.1204 14.3815 28.6628 15.1836 29.0547 16.1133C29.4557 17.043 29.6562 18.0456 29.6562 19.1211Z" fill="url(#paint1_linear_401_910)" fill-opacity="0.96"/>
<path d="M29.6562 19.1211C29.6562 19.8503 29.5241 20.5475 29.2598 21.2129C28.9954 21.8691 28.6445 22.4889 28.207 23.0723C27.7786 23.6465 27.2865 24.1797 26.7305 24.6719C26.1836 25.1549 25.6276 25.5924 25.0625 25.9844H29.3828L29.0547 31.6719L16.2578 31.2344V26.2578C16.7409 26.0938 17.2467 25.8978 17.7754 25.6699C18.3132 25.4329 18.8372 25.1641 19.3477 24.8633C19.8672 24.5625 20.3548 24.2253 20.8105 23.8516C21.2754 23.4779 21.681 23.0723 22.0273 22.6348C22.3828 22.1882 22.6608 21.7051 22.8613 21.1855C23.071 20.666 23.1758 20.1055 23.1758 19.5039C23.1758 19.1576 23.112 18.8522 22.9844 18.5879C22.8659 18.3236 22.6973 18.1048 22.4785 17.9316C22.2598 17.7493 22.0046 17.6172 21.7129 17.5352C21.4303 17.444 21.125 17.3984 20.7969 17.3984C20.5234 17.3984 20.2454 17.4303 19.9629 17.4941C19.6803 17.5488 19.4023 17.6309 19.1289 17.7402C18.8555 17.8496 18.5957 17.9863 18.3496 18.1504C18.1126 18.3053 17.8984 18.4831 17.707 18.6836L16.5039 13.3242C16.8411 12.987 17.2285 12.7044 17.666 12.4766C18.1035 12.2487 18.5638 12.0664 19.0469 11.9297C19.5299 11.7839 20.0221 11.679 20.5234 11.6152C21.0247 11.5514 21.5169 11.5195 22 11.5195C23.0755 11.5195 24.0781 11.7155 25.0078 12.1074C25.9375 12.4902 26.7441 13.0234 27.4277 13.707C28.1204 14.3815 28.6628 15.1836 29.0547 16.1133C29.4557 17.043 29.6562 18.0456 29.6562 19.1211Z" fill="#D96F04"/>
<defs>
<linearGradient id="paint0_linear_401_910" x1="33.5903" y1="32" x2="0.818035" y2="20.939" gradientUnits="userSpaceOnUse">
<stop stop-color="#3C096C"/>
<stop offset="1" stop-color="#621CA3"/>
</linearGradient>
<linearGradient id="paint1_linear_401_910" x1="33.5903" y1="32" x2="0.818035" y2="20.939" gradientUnits="userSpaceOnUse">
<stop stop-color="#3C096C"/>
<stop offset="1" stop-color="#621CA3"/>
</linearGradient>
</defs>
</svg>
