<svg width="30" height="30" fill="none" xmlns="http://www.w3.org/2000/svg"><path d="M3.75 12.5V5c0-.354.12-.651.36-.89.239-.24.536-.36.89-.36h7.5c.354 0 .651.12.89.36.24.239.36.536.36.89v7.5c0 .354-.12.651-.36.89-.239.24-.536.36-.89.36H5a1.21 1.21 0 0 1-.89-.36 1.21 1.21 0 0 1-.36-.89ZM16.25 25v-7.5c0-.354.12-.651.36-.89.239-.24.536-.36.89-.36H25c.354 0 .651.12.89.36.24.239.36.536.36.89V25c0 .354-.12.651-.36.89-.239.24-.536.36-.89.36h-7.5a1.21 1.21 0 0 1-.89-.36 1.21 1.21 0 0 1-.36-.89Zm-12.5 0v-7.5c0-.354.12-.651.36-.89.239-.24.536-.36.89-.36h7.5c.354 0 .651.12.89.36.24.239.36.536.36.89V25c0 .354-.12.651-.36.89-.239.24-.536.36-.89.36H5a1.21 1.21 0 0 1-.89-.36 1.21 1.21 0 0 1-.36-.89Zm2.5-13.75h5v-5h-5v5Zm12.5 12.5h5v-5h-5v5Zm-12.5 0h5v-5h-5v5ZM16.25 12.5V5c0-.354.12-.651.36-.89.239-.24.536-.36.89-.36H25c.354 0 .651.12.89.36.24.239.36.536.36.89v7.5c0 .354-.12.651-.36.89-.239.24-.536.36-.89.36h-7.5a1.21 1.21 0 0 1-.89-.36 1.21 1.21 0 0 1-.36-.89Zm2.5-1.25h5v-5h-5v5Z" fill="#240046"/></svg>