<svg width="20" height="20" viewBox="0 0 20 20" fill="none" xmlns="http://www.w3.org/2000/svg">
<path d="M6.67188 18.3332C6.21354 18.3332 5.82119 18.17 5.4948 17.8436C5.16841 17.5172 5.0052 17.1248 5.0052 16.6665C5.0052 16.2082 5.16841 15.8158 5.4948 15.4894C5.82119 15.163 6.21354 14.9998 6.67188 14.9998C7.13021 14.9998 7.52258 15.163 7.84896 15.4894C8.17535 15.8158 8.33854 16.2082 8.33854 16.6665C8.33854 17.1248 8.17535 17.5172 7.84896 17.8436C7.52258 18.17 7.13021 18.3332 6.67188 18.3332ZM15.0052 18.3332C14.5469 18.3332 14.1545 18.17 13.8281 17.8436C13.5017 17.5172 13.3385 17.1248 13.3385 16.6665C13.3385 16.2082 13.5017 15.8158 13.8281 15.4894C14.1545 15.163 14.5469 14.9998 15.0052 14.9998C15.4635 14.9998 15.8559 15.163 16.1823 15.4894C16.5087 15.8158 16.6719 16.2082 16.6719 16.6665C16.6719 17.1248 16.5087 17.5172 16.1823 17.8436C15.8559 18.17 15.4635 18.3332 15.0052 18.3332ZM5.96354 4.99984L7.96354 9.1665H13.7969L16.0885 4.99984H5.96354ZM5.17187 3.33317H17.4635C17.783 3.33317 18.026 3.47553 18.1927 3.76025C18.3594 4.04498 18.3663 4.33317 18.2135 4.62484L15.2552 9.95817C15.1024 10.2359 14.8976 10.4512 14.6406 10.604C14.3837 10.7568 14.1024 10.8332 13.7969 10.8332H7.58854L6.67188 12.4998H16.6719V14.1665H6.67188C6.04688 14.1665 5.57465 13.8922 5.2552 13.3436C4.93576 12.795 4.92188 12.2498 5.21355 11.7082L6.33854 9.6665L3.33854 3.33317H1.67188V1.6665H4.3802L5.17187 3.33317Z" fill="url(#paint0_linear_505_3097)"/>
<defs>
<linearGradient id="paint0_linear_505_3097" x1="0.994202" y1="10.5099" x2="23.2005" y2="10.5099" gradientUnits="userSpaceOnUse">
<stop stop-color="#7000FF"/>
<stop offset="1" stop-color="#FF9B05"/>
</linearGradient>
</defs>
</svg>
