<svg width="20" height="20" viewBox="0 0 20 20" fill="none" xmlns="http://www.w3.org/2000/svg">
<g id="circle_rings">
<path d="M10.0149 0C15.5126 0 20 4.48737 20 10.0149C20 15.5126 15.5126 20 10.0149 20C4.48737 20 0 15.5126 0 10.0149C0 4.48737 4.48737 0 10.0149 0ZM10.0149 0.505201C4.78455 0.505201 0.505201 4.72511 0.505201 10.0149C0.505201 15.2452 4.75483 19.4948 10.0149 19.4948C15.2452 19.4948 19.4948 15.2452 19.4948 10.0149C19.4948 4.75483 15.2452 0.505201 10.0149 0.505201ZM10.0149 1.60475C5.3789 1.60475 1.60475 5.3789 1.60475 10.0149C1.60475 14.6211 5.3789 18.3952 10.0149 18.3952C14.6211 18.3952 18.3952 14.6211 18.3952 10.0149C18.3952 6.24071 15.899 3.0312 12.4814 1.99108C11.679 1.75334 10.847 1.60475 10.0149 1.60475ZM10.0149 1.09955C14.9183 1.09955 18.9004 5.08172 18.9004 10.0149C18.9004 14.9183 14.9183 18.9004 10.0149 18.9004C5.08172 18.9004 1.09955 14.9183 1.09955 10.0149C1.09955 5.08172 5.08172 1.09955 10.0149 1.09955Z" fill-opacity="0.9"/>
</g>
</svg>
