<svg fill="none" xmlns="http://www.w3.org/2000/svg">

<!-- Hero Icons -->
<g id="done">
<path id="Vector" d="M10.0492 27L1.57422 18.525L3.71172 16.425L10.0867 22.8L12.1867 24.9L10.0492 27ZM18.5242 27L10.0492 18.525L12.1492 16.3875L18.5242 22.7625L32.3242 8.96252L34.4242 11.1L18.5242 27ZM18.5242 18.525L16.3867 16.425L23.8117 9.00002L25.9492 11.1L18.5242 18.525Z"/>
</g>

<g id="game">
<path id="Vector" d="M6.82594 28.5C5.55094 28.5 4.56344 28.0563 3.86344 27.1688C3.16344 26.2812 2.90094 25.2 3.07594 23.925L4.65094 12.675C4.87594 11.175 5.54469 9.9375 6.65719 8.9625C7.76969 7.9875 9.07594 7.5 10.5759 7.5H25.4259C26.9259 7.5 28.2322 7.9875 29.3447 8.9625C30.4572 9.9375 31.1259 11.175 31.3509 12.675L32.9259 23.925C33.1009 25.2 32.8384 26.2812 32.1384 27.1688C31.4384 28.0563 30.4509 28.5 29.1759 28.5C28.6509 28.5 28.1634 28.4062 27.7134 28.2188C27.2634 28.0312 26.8509 27.75 26.4759 27.375L23.1009 24H12.9009L9.52594 27.375C9.15094 27.75 8.73844 28.0312 8.28844 28.2188C7.83844 28.4062 7.35094 28.5 6.82594 28.5ZM7.42594 25.275L11.7009 21H24.3009L28.5759 25.275C28.6259 25.325 28.8259 25.4 29.1759 25.5C29.4509 25.5 29.6697 25.4188 29.8322 25.2563C29.9947 25.0938 30.0509 24.875 30.0009 24.6L28.3509 13.05C28.2509 12.325 27.9259 11.7188 27.3759 11.2313C26.8259 10.7438 26.1759 10.5 25.4259 10.5H10.5759C9.82594 10.5 9.17594 10.7438 8.62594 11.2313C8.07594 11.7188 7.75094 12.325 7.65094 13.05L6.00094 24.6C5.95094 24.875 6.00719 25.0938 6.16969 25.2563C6.33219 25.4188 6.55094 25.5 6.82594 25.5C6.87594 25.5 7.07594 25.425 7.42594 25.275ZM25.5009 19.5C25.9259 19.5 26.2822 19.3563 26.5697 19.0688C26.8572 18.7812 27.0009 18.425 27.0009 18C27.0009 17.575 26.8572 17.2188 26.5697 16.9313C26.2822 16.6438 25.9259 16.5 25.5009 16.5C25.0759 16.5 24.7197 16.6438 24.4322 16.9313C24.1447 17.2188 24.0009 17.575 24.0009 18C24.0009 18.425 24.1447 18.7812 24.4322 19.0688C24.7197 19.3563 25.0759 19.5 25.5009 19.5ZM22.5009 15C22.9259 15 23.2822 14.8563 23.5697 14.5688C23.8572 14.2813 24.0009 13.925 24.0009 13.5C24.0009 13.075 23.8572 12.7188 23.5697 12.4313C23.2822 12.1438 22.9259 12 22.5009 12C22.0759 12 21.7197 12.1438 21.4322 12.4313C21.1447 12.7188 21.0009 13.075 21.0009 13.5C21.0009 13.925 21.1447 14.2813 21.4322 14.5688C21.7197 14.8563 22.0759 15 22.5009 15ZM11.6259 19.5H13.8759V16.875H16.5009V14.625H13.8759V12H11.6259V14.625H9.00094V16.875H11.6259V19.5Z"/>
</g>

<g id="shop">
<path id="Vector" d="M10.5 31C9.8125 31 9.22396 30.7552 8.73438 30.2656C8.24479 29.776 8 29.1875 8 28.5C8 27.8125 8.24479 27.224 8.73438 26.7344C9.22396 26.2448 9.8125 26 10.5 26C11.1875 26 11.776 26.2448 12.2656 26.7344C12.7552 27.224 13 27.8125 13 28.5C13 29.1875 12.7552 29.776 12.2656 30.2656C11.776 30.7552 11.1875 31 10.5 31ZM23 31C22.3125 31 21.724 30.7552 21.2344 30.2656C20.7448 29.776 20.5 29.1875 20.5 28.5C20.5 27.8125 20.7448 27.224 21.2344 26.7344C21.724 26.2448 22.3125 26 23 26C23.6875 26 24.276 26.2448 24.7656 26.7344C25.2552 27.224 25.5 27.8125 25.5 28.5C25.5 29.1875 25.2552 29.776 24.7656 30.2656C24.276 30.7552 23.6875 31 23 31ZM9.4375 11L12.4375 17.25H21.1875L24.625 11H9.4375ZM8.25 8.5H26.6875C27.1667 8.5 27.5312 8.71354 27.7812 9.14062C28.0312 9.56771 28.0417 10 27.8125 10.4375L23.375 18.4375C23.1458 18.8542 22.8385 19.1771 22.4531 19.4062C22.0677 19.6354 21.6458 19.75 21.1875 19.75H11.875L10.5 22.25H25.5V24.75H10.5C9.5625 24.75 8.85417 24.3385 8.375 23.5156C7.89583 22.6927 7.875 21.875 8.3125 21.0625L10 18L5.5 8.5H3V6H7.0625L8.25 8.5Z"/>
</g>

<g id="gift">
<path id="Vector" d="M5.5 31.125V17.375H3V9.875H9.5C9.39583 9.6875 9.32812 9.48958 9.29687 9.28125C9.26562 9.07292 9.25 8.85417 9.25 8.625C9.25 7.58333 9.61458 6.69792 10.3437 5.96875C11.0729 5.23958 11.9583 4.875 13 4.875C13.4792 4.875 13.9271 4.96354 14.3437 5.14062C14.7604 5.31771 15.1458 5.5625 15.5 5.875C15.8542 5.54167 16.2396 5.29167 16.6562 5.125C17.0729 4.95833 17.5208 4.875 18 4.875C19.0417 4.875 19.9271 5.23958 20.6562 5.96875C21.3854 6.69792 21.75 7.58333 21.75 8.625C21.75 8.85417 21.7292 9.06771 21.6875 9.26562C21.6458 9.46354 21.5833 9.66667 21.5 9.875H28V17.375H25.5V31.125H5.5ZM18 7.375C17.6458 7.375 17.349 7.49479 17.1094 7.73438C16.8698 7.97396 16.75 8.27083 16.75 8.625C16.75 8.97917 16.8698 9.27604 17.1094 9.51562C17.349 9.75521 17.6458 9.875 18 9.875C18.3542 9.875 18.651 9.75521 18.8906 9.51562C19.1302 9.27604 19.25 8.97917 19.25 8.625C19.25 8.27083 19.1302 7.97396 18.8906 7.73438C18.651 7.49479 18.3542 7.375 18 7.375ZM11.75 8.625C11.75 8.97917 11.8698 9.27604 12.1094 9.51562C12.349 9.75521 12.6458 9.875 13 9.875C13.3542 9.875 13.651 9.75521 13.8906 9.51562C14.1302 9.27604 14.25 8.97917 14.25 8.625C14.25 8.27083 14.1302 7.97396 13.8906 7.73438C13.651 7.49479 13.3542 7.375 13 7.375C12.6458 7.375 12.349 7.49479 12.1094 7.73438C11.8698 7.97396 11.75 8.27083 11.75 8.625ZM5.5 12.375V14.875H14.25V12.375H5.5ZM14.25 28.625V17.375H8V28.625H14.25ZM16.75 28.625H23V17.375H16.75V28.625ZM25.5 14.875V12.375H16.75V14.875H25.5Z"/>
</g>


<!-- Other Icons -->
<g id="account">
<path id="Vector" d="M7.3125 21.375C8.375 20.5625 9.5625 19.9219 10.875 19.4531C12.1875 18.9844 13.5625 18.75 15 18.75C16.4375 18.75 17.8125 18.9844 19.125 19.4531C20.4375 19.9219 21.625 20.5625 22.6875 21.375C23.4167 20.5208 23.9844 19.5521 24.3906 18.4688C24.7969 17.3854 25 16.2292 25 15C25 12.2292 24.026 9.86979 22.0781 7.92188C20.1302 5.97396 17.7708 5 15 5C12.2292 5 9.86979 5.97396 7.92188 7.92188C5.97396 9.86979 5 12.2292 5 15C5 16.2292 5.20312 17.3854 5.60938 18.4688C6.01562 19.5521 6.58333 20.5208 7.3125 21.375ZM15 16.25C13.7708 16.25 12.7344 15.8281 11.8906 14.9844C11.0469 14.1406 10.625 13.1042 10.625 11.875C10.625 10.6458 11.0469 9.60938 11.8906 8.76562C12.7344 7.92188 13.7708 7.5 15 7.5C16.2292 7.5 17.2656 7.92188 18.1094 8.76562C18.9531 9.60938 19.375 10.6458 19.375 11.875C19.375 13.1042 18.9531 14.1406 18.1094 14.9844C17.2656 15.8281 16.2292 16.25 15 16.25ZM15 27.5C13.2708 27.5 11.6458 27.1719 10.125 26.5156C8.60417 25.8594 7.28125 24.9688 6.15625 23.8438C5.03125 22.7188 4.14062 21.3958 3.48438 19.875C2.82812 18.3542 2.5 16.7292 2.5 15C2.5 13.2708 2.82812 11.6458 3.48438 10.125C4.14062 8.60417 5.03125 7.28125 6.15625 6.15625C7.28125 5.03125 8.60417 4.14062 10.125 3.48438C11.6458 2.82812 13.2708 2.5 15 2.5C16.7292 2.5 18.3542 2.82812 19.875 3.48438C21.3958 4.14062 22.7188 5.03125 23.8438 6.15625C24.9688 7.28125 25.8594 8.60417 26.5156 10.125C27.1719 11.6458 27.5 13.2708 27.5 15C27.5 16.7292 27.1719 18.3542 26.5156 19.875C25.8594 21.3958 24.9688 22.7188 23.8438 23.8438C22.7188 24.9688 21.3958 25.8594 19.875 26.5156C18.3542 27.1719 16.7292 27.5 15 27.5ZM15 25C16.1042 25 17.1458 24.8385 18.125 24.5156C19.1042 24.1927 20 23.7292 20.8125 23.125C20 22.5208 19.1042 22.0573 18.125 21.7344C17.1458 21.4115 16.1042 21.25 15 21.25C13.8958 21.25 12.8542 21.4115 11.875 21.7344C10.8958 22.0573 10 22.5208 9.1875 23.125C10 23.7292 10.8958 24.1927 11.875 24.5156C12.8542 24.8385 13.8958 25 15 25ZM15 13.75C15.5417 13.75 15.9896 13.5729 16.3438 13.2188C16.6979 12.8646 16.875 12.4167 16.875 11.875C16.875 11.3333 16.6979 10.8854 16.3438 10.5312C15.9896 10.1771 15.5417 10 15 10C14.4583 10 14.0104 10.1771 13.6562 10.5312C13.3021 10.8854 13.125 11.3333 13.125 11.875C13.125 12.4167 13.3021 12.8646 13.6562 13.2188C14.0104 13.5729 14.4583 13.75 15 13.75Z"/>
</g>

<g id="search">
<path id="Vector" d="M24.5 26.25L16.625 18.375C16 18.875 15.2812 19.2708 14.4688 19.5625C13.6562 19.8542 12.7917 20 11.875 20C9.60417 20 7.68229 19.2135 6.10938 17.6406C4.53646 16.0677 3.75 14.1458 3.75 11.875C3.75 9.60417 4.53646 7.68229 6.10938 6.10938C7.68229 4.53646 9.60417 3.75 11.875 3.75C14.1458 3.75 16.0677 4.53646 17.6406 6.10938C19.2135 7.68229 20 9.60417 20 11.875C20 12.7917 19.8542 13.6562 19.5625 14.4688C19.2708 15.2812 18.875 16 18.375 16.625L26.25 24.5L24.5 26.25ZM11.875 17.5C13.4375 17.5 14.7656 16.9531 15.8594 15.8594C16.9531 14.7656 17.5 13.4375 17.5 11.875C17.5 10.3125 16.9531 8.98438 15.8594 7.89062C14.7656 6.79688 13.4375 6.25 11.875 6.25C10.3125 6.25 8.98438 6.79688 7.89062 7.89062C6.79688 8.98438 6.25 10.3125 6.25 11.875C6.25 13.4375 6.79688 14.7656 7.89062 15.8594C8.98438 16.9531 10.3125 17.5 11.875 17.5Z"/>
</g>

<g id="play">
<path id="Vector" d="M8 19V5L19 12L8 19ZM10 15.35L15.25 12L10 8.65V15.35Z"/>
</g>


<!-- Contact Icons -->
<g id="phone">
<path id="Vector" d="M16.625 17.5C14.8889 17.5 13.1736 17.1215 11.4792 16.3646C9.78472 15.6076 8.24306 14.5347 6.85417 13.1458C5.46528 11.7569 4.39236 10.2153 3.63542 8.52083C2.87847 6.82639 2.5 5.11111 2.5 3.375C2.5 3.125 2.58333 2.91667 2.75 2.75C2.91667 2.58333 3.125 2.5 3.375 2.5H6.75C6.94444 2.5 7.11806 2.56597 7.27083 2.69792C7.42361 2.82986 7.51389 2.98611 7.54167 3.16667L8.08333 6.08333C8.11111 6.30556 8.10417 6.49306 8.0625 6.64583C8.02083 6.79861 7.94444 6.93056 7.83333 7.04167L5.8125 9.08333C6.09028 9.59722 6.42014 10.0938 6.80208 10.5729C7.18403 11.0521 7.60417 11.5139 8.0625 11.9583C8.49306 12.3889 8.94444 12.7882 9.41667 13.1563C9.88889 13.5243 10.3889 13.8611 10.9167 14.1667L12.875 12.2083C13 12.0833 13.1632 11.9896 13.3646 11.9271C13.566 11.8646 13.7639 11.8472 13.9583 11.875L16.8333 12.4583C17.0278 12.5139 17.1875 12.6146 17.3125 12.7604C17.4375 12.9063 17.5 13.0694 17.5 13.25V16.625C17.5 16.875 17.4167 17.0833 17.25 17.25C17.0833 17.4167 16.875 17.5 16.625 17.5ZM5.02083 7.5L6.39583 6.125L6.04167 4.16667H4.1875C4.25694 4.73611 4.35417 5.29861 4.47917 5.85417C4.60417 6.40972 4.78472 6.95833 5.02083 7.5ZM12.4792 14.9583C13.0208 15.1944 13.5729 15.3819 14.1354 15.5208C14.6979 15.6597 15.2639 15.75 15.8333 15.7917V13.9583L13.875 13.5625L12.4792 14.9583Z"/>
</g>

<g id="email">
<path id="Vector" d="M3.33464 16.6668C2.8763 16.6668 2.48394 16.5036 2.15755 16.1772C1.83116 15.8509 1.66797 15.4585 1.66797 15.0002V5.00016C1.66797 4.54183 1.83116 4.14947 2.15755 3.82308C2.48394 3.49669 2.8763 3.3335 3.33464 3.3335H16.668C17.1263 3.3335 17.5187 3.49669 17.8451 3.82308C18.1714 4.14947 18.3346 4.54183 18.3346 5.00016V15.0002C18.3346 15.4585 18.1714 15.8509 17.8451 16.1772C17.5187 16.5036 17.1263 16.6668 16.668 16.6668H3.33464ZM10.0013 10.8335L3.33464 6.66683V15.0002H16.668V6.66683L10.0013 10.8335ZM10.0013 9.16683L16.668 5.00016H3.33464L10.0013 9.16683ZM3.33464 6.66683V5.00016V15.0002V6.66683Z"/>
</g>


<!-- Social Icons -->
<g id="facebook">
<path id="Vector" fill="none" fill-rule="evenodd" clip-rule="evenodd" d="M5.56364 8.49997C4.68365 8.49997 4.5 8.67268 4.5 9.49996V11C4.5 11.8274 4.68365 12 5.56364 12H7.69091V18C7.69091 18.8273 7.87456 19 8.75454 19H10.8818C11.7618 19 11.9454 18.8273 11.9454 18V12H14.334C15.0015 12 15.1735 11.878 15.3568 11.2748L15.8126 9.77473C16.1266 8.74126 15.9332 8.49997 14.7899 8.49997H11.9454V6C11.9454 5.44772 12.4216 5 13.0091 5H16.0364C16.9163 5 17.1 4.82733 17.1 4V2C17.1 1.17266 16.9163 1 16.0364 1H13.0091C10.0719 1 7.69091 3.23858 7.69091 6V8.49997H5.56364Z" stroke-width="1.5" stroke-linejoin="round"/>
</g>

<g id="twitter">
<path id="Vector" fill="none" d="M1.66797 15.4168C3.13884 16.2677 4.84654 16.6668 6.66797 16.6668C12.0686 16.6668 16.4694 12.3856 16.6615 7.0318L18.3346 3.75016L15.5395 4.16683C14.9519 3.6482 14.18 3.3335 13.3346 3.3335C11.191 3.3335 9.58522 5.43128 10.1021 7.48352C7.14117 7.67455 4.45853 5.85125 2.90708 3.42119C1.87753 6.91837 2.83154 11.1302 5.41797 13.7256C5.41797 14.706 2.91797 15.2908 1.66797 15.4168Z" stroke-width="1.5" stroke-linejoin="round"/>
</g>

<g id="whatsapp" clip-path="url(#clip0_240_773)">
<path fill="none" id="Vector" d="M10.0013 18.3332C14.6036 18.3332 18.3346 14.6022 18.3346 9.99984C18.3346 5.39746 14.6036 1.6665 10.0013 1.6665C5.39893 1.6665 1.66797 5.39746 1.66797 9.99984C1.66797 11.1489 1.90053 12.2437 2.32115 13.2396C2.55362 13.7899 2.66985 14.0652 2.68424 14.2732C2.69864 14.4812 2.63742 14.7099 2.51499 15.1675L1.66797 18.3332L4.83361 17.4862C5.2912 17.3638 5.52 17.3025 5.72799 17.3169C5.93598 17.3313 6.21118 17.4475 6.76159 17.68C7.75751 18.1006 8.85222 18.3332 10.0013 18.3332Z" stroke-width="1.5" stroke-linejoin="round"/>
<path fill="none" id="Vector_2" d="M7.15549 10.3146L7.88127 9.41316C8.18716 9.03325 8.56528 8.67958 8.59495 8.17371C8.60236 8.04595 8.51253 7.4723 8.3327 6.32505C8.26204 5.87417 7.84108 5.8335 7.47646 5.8335C7.00131 5.8335 6.76374 5.8335 6.52782 5.94125C6.22965 6.07745 5.92352 6.46042 5.85634 6.78127C5.80319 7.03513 5.84269 7.21005 5.92169 7.5599C6.25722 9.04583 7.04437 10.5133 8.26493 11.7339C9.48553 12.9545 10.953 13.7417 12.4389 14.0772C12.7888 14.1562 12.9637 14.1957 13.2176 14.1425C13.5384 14.0753 13.9214 13.7692 14.0576 13.471C14.1654 13.2351 14.1654 12.9976 14.1654 12.5224C14.1654 12.1577 14.1247 11.7368 13.6738 11.6662C12.5265 11.4863 11.9529 11.3965 11.8251 11.4039C11.3193 11.4336 10.9656 11.8117 10.5857 12.1176L9.68428 12.8433" stroke-width="1.5"/>
</g>
<defs>
<clipPath id="clip0_240_773">
<rect width="20" height="20" fill="white"/>
</clipPath>
</defs>

<!-- Decorative Icons -->
<g id="star">
<path id="Vector" d="M10 0C9.54927 3.67912 9.40023 6.01533 8.51952 7.52342C7.07984 9.3979 4.58438 9.57643 0 10C4.51007 10.5457 6.94859 10.664 8.39249 12.3811C9.47125 13.9013 9.65377 16.2527 10 20C10.588 15.14 10.6802 12.6857 12.8111 11.2891C14.3263 10.5573 16.5872 10.3976 20 10C15.7682 9.48156 13.3129 9.36226 11.8512 8.06953C10.6152 6.59602 10.4833 4.14928 10 0Z" />
</g>

<g id="circle">
<path id="Vector" d="M10 20C15.5228 20 20 15.5228 20 10C20 4.47715 15.5228 0 10 0C4.47715 0 0 4.47715 0 10C0 15.5228 4.47715 20 10 20Z"/>
</g>

<g id="circle_rings">
<path d="M10.0149 0C15.5126 0 20 4.48737 20 10.0149C20 15.5126 15.5126 20 10.0149 20C4.48737 20 0 15.5126 0 10.0149C0 4.48737 4.48737 0 10.0149 0ZM10.0149 0.505201C4.78455 0.505201 0.505201 4.72511 0.505201 10.0149C0.505201 15.2452 4.75483 19.4948 10.0149 19.4948C15.2452 19.4948 19.4948 15.2452 19.4948 10.0149C19.4948 4.75483 15.2452 0.505201 10.0149 0.505201ZM10.0149 1.60475C5.3789 1.60475 1.60475 5.3789 1.60475 10.0149C1.60475 14.6211 5.3789 18.3952 10.0149 18.3952C14.6211 18.3952 18.3952 14.6211 18.3952 10.0149C18.3952 6.24071 15.899 3.0312 12.4814 1.99108C11.679 1.75334 10.847 1.60475 10.0149 1.60475ZM10.0149 1.09955C14.9183 1.09955 18.9004 5.08172 18.9004 10.0149C18.9004 14.9183 14.9183 18.9004 10.0149 18.9004C5.08172 18.9004 1.09955 14.9183 1.09955 10.0149C1.09955 5.08172 5.08172 1.09955 10.0149 1.09955Z"/>
</g>

</svg>
