<svg width="145" height="21" viewBox="0 0 145 21" fill="none" xmlns="http://www.w3.org/2000/svg">
<path d="M14.6973 13.2266C14.6973 14.4753 14.4785 15.569 14.041 16.5078C13.6126 17.4375 13.0202 18.2122 12.2637 18.832C11.5163 19.4518 10.6367 19.9167 9.625 20.2266C8.6224 20.5365 7.54232 20.6914 6.38477 20.6914C5.93815 20.6914 5.44596 20.6322 4.9082 20.5137C4.37956 20.3952 3.8418 20.2493 3.29492 20.0762C2.74805 19.8939 2.2194 19.7025 1.70898 19.502C1.20768 19.2923 0.761068 19.0964 0.369141 18.9141L0.970703 13.2812C1.74544 13.7461 2.60221 14.1016 3.54102 14.3477C4.48893 14.5846 5.41862 14.7031 6.33008 14.7031C6.50326 14.7031 6.71289 14.6986 6.95898 14.6895C7.20508 14.6712 7.4375 14.6302 7.65625 14.5664C7.88411 14.4935 8.07552 14.3887 8.23047 14.252C8.38542 14.1152 8.46289 13.9193 8.46289 13.6641C8.46289 13.4909 8.4082 13.3451 8.29883 13.2266C8.18945 13.099 8.04818 12.9987 7.875 12.9258C7.70182 12.8438 7.50586 12.7845 7.28711 12.748C7.06836 12.7025 6.85417 12.6706 6.64453 12.6523C6.4349 12.6341 6.23893 12.625 6.05664 12.625C5.87435 12.625 5.72852 12.625 5.61914 12.625C4.83529 12.625 4.11979 12.4883 3.47266 12.2148C2.83464 11.9414 2.2832 11.5632 1.81836 11.0801C1.36263 10.5879 1.00716 10.0091 0.751953 9.34375C0.496745 8.66927 0.369141 7.9401 0.369141 7.15625C0.369141 6.08073 0.583333 5.11914 1.01172 4.27148C1.44922 3.41471 2.02799 2.6901 2.74805 2.09766C3.47721 1.49609 4.3112 1.03581 5.25 0.716797C6.1888 0.397786 7.15951 0.238281 8.16211 0.238281C8.60872 0.238281 9.06901 0.25651 9.54297 0.292969C10.0169 0.320312 10.4863 0.375 10.9512 0.457031C11.4251 0.539062 11.8854 0.64388 12.332 0.771484C12.7786 0.899089 13.2025 1.05859 13.6035 1.25L13.084 6.80078C12.4642 6.59115 11.8125 6.41797 11.1289 6.28125C10.4544 6.13542 9.79362 6.0625 9.14648 6.0625C9.02799 6.0625 8.87305 6.06706 8.68164 6.07617C8.49935 6.07617 8.30339 6.08984 8.09375 6.11719C7.89323 6.13542 7.68815 6.16732 7.47852 6.21289C7.26888 6.25846 7.08203 6.32227 6.91797 6.4043C6.75391 6.47721 6.62174 6.57747 6.52148 6.70508C6.42122 6.83268 6.37565 6.98307 6.38477 7.15625C6.39388 7.35677 6.4668 7.52083 6.60352 7.64844C6.74935 7.76693 6.93164 7.86263 7.15039 7.93555C7.37826 7.99935 7.62435 8.04492 7.88867 8.07227C8.16211 8.09961 8.43099 8.11784 8.69531 8.12695C8.95964 8.12695 9.20573 8.12695 9.43359 8.12695C9.66146 8.11784 9.84831 8.1224 9.99414 8.14062C10.7233 8.1862 11.3796 8.34115 11.9629 8.60547C12.5462 8.86979 13.0384 9.2207 13.4395 9.6582C13.8496 10.0957 14.1595 10.6198 14.3691 11.2305C14.5879 11.832 14.6973 12.4974 14.6973 13.2266ZM31.8008 20.5L24.9648 20.8281L24.9102 14.5117H21.7656L21.5742 20.5H15.4492L15.9688 1.27734L22.4766 1.57812L22.0664 11.3945H25.1016L25.1289 0.839844L31.3633 1.00391L31.8008 20.5ZM49.998 10.8477C49.998 11.6771 49.9023 12.4792 49.7109 13.2539C49.5195 14.0195 49.2415 14.7396 48.877 15.4141C48.5215 16.0885 48.084 16.7083 47.5645 17.2734C47.054 17.8294 46.4753 18.3079 45.8281 18.709C45.1901 19.11 44.4928 19.4245 43.7363 19.6523C42.9798 19.8711 42.1777 19.9805 41.3301 19.9805C40.5098 19.9805 39.7259 19.8757 38.9785 19.666C38.2402 19.4564 37.5475 19.1647 36.9004 18.791C36.2533 18.4082 35.6654 17.9525 35.1367 17.4238C34.6172 16.8861 34.1706 16.2936 33.7969 15.6465C33.4323 14.9902 33.1452 14.2884 32.9355 13.541C32.735 12.7936 32.6348 12.0143 32.6348 11.2031C32.6348 10.4102 32.7305 9.63542 32.9219 8.87891C33.1133 8.11328 33.3867 7.39323 33.7422 6.71875C34.1068 6.04427 34.5443 5.42448 35.0547 4.85938C35.5651 4.29427 36.1348 3.80664 36.7637 3.39648C37.4017 2.98633 38.0898 2.66732 38.8281 2.43945C39.5664 2.21159 40.3457 2.09766 41.166 2.09766C42.4876 2.09766 43.6908 2.30273 44.7754 2.71289C45.8691 3.12305 46.7988 3.71094 47.5645 4.47656C48.3392 5.23307 48.9362 6.15365 49.3555 7.23828C49.7839 8.3138 49.998 9.51693 49.998 10.8477ZM43.9277 11.2031C43.9277 10.8112 43.8685 10.4329 43.75 10.0684C43.6406 9.69466 43.4766 9.36654 43.2578 9.08398C43.0391 8.79232 42.7656 8.5599 42.4375 8.38672C42.1185 8.20443 41.7493 8.11328 41.3301 8.11328C40.9017 8.11328 40.5189 8.19076 40.1816 8.3457C39.8444 8.50065 39.5527 8.71484 39.3066 8.98828C39.0697 9.2526 38.8874 9.56706 38.7598 9.93164C38.6322 10.2871 38.5684 10.6654 38.5684 11.0664C38.5684 11.4492 38.623 11.832 38.7324 12.2148C38.8418 12.5977 39.0059 12.944 39.2246 13.2539C39.4434 13.5638 39.7122 13.8145 40.0312 14.0059C40.3594 14.1973 40.7376 14.293 41.166 14.293C41.5944 14.293 41.9772 14.2109 42.3145 14.0469C42.6608 13.8737 42.9525 13.6458 43.1895 13.3633C43.4264 13.0716 43.6087 12.7389 43.7363 12.3652C43.8639 11.9915 43.9277 11.6042 43.9277 11.2031ZM66.8828 7.34766C66.8828 8.23177 66.7507 9.01562 66.4863 9.69922C66.222 10.3828 65.8574 10.9798 65.3926 11.4902C64.9368 12.0007 64.3991 12.4336 63.7793 12.7891C63.1595 13.1445 62.4941 13.4362 61.7832 13.6641C61.0814 13.8828 60.3522 14.0469 59.5957 14.1562C58.8392 14.2565 58.0964 14.3112 57.3672 14.3203V20.6914H50.9961C50.9961 18.6042 51.0007 16.526 51.0098 14.457C51.0189 12.388 51.0326 10.3008 51.0508 8.19531C51.069 7.08333 51.0736 5.97135 51.0645 4.85938C51.0553 3.7474 51.0781 2.6263 51.1328 1.49609C52.2995 1.14974 53.4661 0.889974 54.6328 0.716797C55.7995 0.54362 57.0026 0.457031 58.2422 0.457031C58.944 0.457031 59.6458 0.516276 60.3477 0.634766C61.0495 0.744141 61.7194 0.921875 62.3574 1.16797C63.0046 1.41406 63.6016 1.72396 64.1484 2.09766C64.7044 2.46224 65.1829 2.89974 65.584 3.41016C65.985 3.92057 66.2995 4.50391 66.5273 5.16016C66.7643 5.80729 66.8828 6.53646 66.8828 7.34766ZM60.8125 7.8125C60.8125 7.22005 60.6302 6.75977 60.2656 6.43164C59.9102 6.0944 59.4453 5.92578 58.8711 5.92578C58.6797 5.92578 58.4792 5.94401 58.2695 5.98047C58.069 6.00781 57.8776 6.04427 57.6953 6.08984L57.5312 10.082C57.6589 10.1003 57.7819 10.1094 57.9004 10.1094C58.0189 10.1094 58.1419 10.1094 58.2695 10.1094C58.5977 10.1094 58.9121 10.0547 59.2129 9.94531C59.5228 9.83594 59.7962 9.68099 60.0332 9.48047C60.2702 9.27083 60.457 9.0293 60.5938 8.75586C60.7396 8.47331 60.8125 8.15885 60.8125 7.8125ZM95.1289 1.27734L94.3633 7.04688C94.099 6.97396 93.8346 6.92383 93.5703 6.89648C93.306 6.86914 93.0417 6.85547 92.7773 6.85547C92.1029 6.85547 91.4603 6.94661 90.8496 7.12891C90.2389 7.30208 89.6966 7.57096 89.2227 7.93555C88.7578 8.30013 88.3841 8.75586 88.1016 9.30273C87.8281 9.84961 87.6914 10.4922 87.6914 11.2305C87.6914 11.7044 87.7643 12.1146 87.9102 12.4609C88.0651 12.8073 88.2793 13.0944 88.5527 13.3223C88.8262 13.5501 89.1497 13.7188 89.5234 13.8281C89.8971 13.9375 90.3073 13.9922 90.7539 13.9922C91.0911 13.9922 91.4421 13.9557 91.8066 13.8828C92.1712 13.8099 92.5312 13.7142 92.8867 13.5957C93.2422 13.4772 93.5885 13.3405 93.9258 13.1855C94.263 13.0306 94.5729 12.8711 94.8555 12.707L94.3086 19.1328C93.9531 19.3151 93.5658 19.4792 93.1465 19.625C92.7363 19.7617 92.3125 19.8848 91.875 19.9941C91.4375 20.0944 91 20.1719 90.5625 20.2266C90.125 20.2812 89.7057 20.3086 89.3047 20.3086C88.1471 20.3086 87.0671 20.0944 86.0645 19.666C85.0618 19.2376 84.1914 18.6497 83.4531 17.9023C82.7148 17.1549 82.1315 16.2754 81.7031 15.2637C81.2839 14.2428 81.0742 13.1445 81.0742 11.9688C81.0742 10.4102 81.2975 8.94271 81.7441 7.56641C82.1908 6.18099 82.847 4.96875 83.7129 3.92969C84.5788 2.89062 85.6497 2.07031 86.9258 1.46875C88.2109 0.867188 89.6875 0.566406 91.3555 0.566406C91.9844 0.566406 92.627 0.616536 93.2832 0.716797C93.9486 0.817057 94.5638 1.00391 95.1289 1.27734ZM113.23 19.3242L106.449 20.1992L105.629 17.1094H102.512L101.828 20.1992L94.8555 19.5156L100.297 1.30469L107.898 0.921875L113.23 19.3242ZM105.137 12.9258L104.098 8.16797L103.086 12.9258H105.137ZM127.518 13.2266C127.518 14.4753 127.299 15.569 126.861 16.5078C126.433 17.4375 125.84 18.2122 125.084 18.832C124.337 19.4518 123.457 19.9167 122.445 20.2266C121.443 20.5365 120.363 20.6914 119.205 20.6914C118.758 20.6914 118.266 20.6322 117.729 20.5137C117.2 20.3952 116.662 20.2493 116.115 20.0762C115.568 19.8939 115.04 19.7025 114.529 19.502C114.028 19.2923 113.581 19.0964 113.189 18.9141L113.791 13.2812C114.566 13.7461 115.423 14.1016 116.361 14.3477C117.309 14.5846 118.239 14.7031 119.15 14.7031C119.324 14.7031 119.533 14.6986 119.779 14.6895C120.025 14.6712 120.258 14.6302 120.477 14.5664C120.704 14.4935 120.896 14.3887 121.051 14.252C121.206 14.1152 121.283 13.9193 121.283 13.6641C121.283 13.4909 121.229 13.3451 121.119 13.2266C121.01 13.099 120.868 12.9987 120.695 12.9258C120.522 12.8438 120.326 12.7845 120.107 12.748C119.889 12.7025 119.674 12.6706 119.465 12.6523C119.255 12.6341 119.059 12.625 118.877 12.625C118.695 12.625 118.549 12.625 118.439 12.625C117.656 12.625 116.94 12.4883 116.293 12.2148C115.655 11.9414 115.104 11.5632 114.639 11.0801C114.183 10.5879 113.827 10.0091 113.572 9.34375C113.317 8.66927 113.189 7.9401 113.189 7.15625C113.189 6.08073 113.404 5.11914 113.832 4.27148C114.27 3.41471 114.848 2.6901 115.568 2.09766C116.298 1.49609 117.132 1.03581 118.07 0.716797C119.009 0.397786 119.98 0.238281 120.982 0.238281C121.429 0.238281 121.889 0.25651 122.363 0.292969C122.837 0.320312 123.307 0.375 123.771 0.457031C124.245 0.539062 124.706 0.64388 125.152 0.771484C125.599 0.899089 126.023 1.05859 126.424 1.25L125.904 6.80078C125.285 6.59115 124.633 6.41797 123.949 6.28125C123.275 6.13542 122.614 6.0625 121.967 6.0625C121.848 6.0625 121.693 6.06706 121.502 6.07617C121.32 6.07617 121.124 6.08984 120.914 6.11719C120.714 6.13542 120.508 6.16732 120.299 6.21289C120.089 6.25846 119.902 6.32227 119.738 6.4043C119.574 6.47721 119.442 6.57747 119.342 6.70508C119.242 6.83268 119.196 6.98307 119.205 7.15625C119.214 7.35677 119.287 7.52083 119.424 7.64844C119.57 7.76693 119.752 7.86263 119.971 7.93555C120.199 7.99935 120.445 8.04492 120.709 8.07227C120.982 8.09961 121.251 8.11784 121.516 8.12695C121.78 8.12695 122.026 8.12695 122.254 8.12695C122.482 8.11784 122.669 8.1224 122.814 8.14062C123.544 8.1862 124.2 8.34115 124.783 8.60547C125.367 8.86979 125.859 9.2207 126.26 9.6582C126.67 10.0957 126.98 10.6198 127.189 11.2305C127.408 11.832 127.518 12.4974 127.518 13.2266ZM144.621 20.5L137.785 20.8281L137.73 14.5117H134.586L134.395 20.5H128.27L128.789 1.27734L135.297 1.57812L134.887 11.3945H137.922L137.949 0.839844L144.184 1.00391L144.621 20.5Z" fill="#D96F04"/>
<path d="M14.6973 13.2266C14.6973 14.4753 14.4785 15.569 14.041 16.5078C13.6126 17.4375 13.0202 18.2122 12.2637 18.832C11.5163 19.4518 10.6367 19.9167 9.625 20.2266C8.6224 20.5365 7.54232 20.6914 6.38477 20.6914C5.93815 20.6914 5.44596 20.6322 4.9082 20.5137C4.37956 20.3952 3.8418 20.2493 3.29492 20.0762C2.74805 19.8939 2.2194 19.7025 1.70898 19.502C1.20768 19.2923 0.761068 19.0964 0.369141 18.9141L0.970703 13.2812C1.74544 13.7461 2.60221 14.1016 3.54102 14.3477C4.48893 14.5846 5.41862 14.7031 6.33008 14.7031C6.50326 14.7031 6.71289 14.6986 6.95898 14.6895C7.20508 14.6712 7.4375 14.6302 7.65625 14.5664C7.88411 14.4935 8.07552 14.3887 8.23047 14.252C8.38542 14.1152 8.46289 13.9193 8.46289 13.6641C8.46289 13.4909 8.4082 13.3451 8.29883 13.2266C8.18945 13.099 8.04818 12.9987 7.875 12.9258C7.70182 12.8438 7.50586 12.7845 7.28711 12.748C7.06836 12.7025 6.85417 12.6706 6.64453 12.6523C6.4349 12.6341 6.23893 12.625 6.05664 12.625C5.87435 12.625 5.72852 12.625 5.61914 12.625C4.83529 12.625 4.11979 12.4883 3.47266 12.2148C2.83464 11.9414 2.2832 11.5632 1.81836 11.0801C1.36263 10.5879 1.00716 10.0091 0.751953 9.34375C0.496745 8.66927 0.369141 7.9401 0.369141 7.15625C0.369141 6.08073 0.583333 5.11914 1.01172 4.27148C1.44922 3.41471 2.02799 2.6901 2.74805 2.09766C3.47721 1.49609 4.3112 1.03581 5.25 0.716797C6.1888 0.397786 7.15951 0.238281 8.16211 0.238281C8.60872 0.238281 9.06901 0.25651 9.54297 0.292969C10.0169 0.320312 10.4863 0.375 10.9512 0.457031C11.4251 0.539062 11.8854 0.64388 12.332 0.771484C12.7786 0.899089 13.2025 1.05859 13.6035 1.25L13.084 6.80078C12.4642 6.59115 11.8125 6.41797 11.1289 6.28125C10.4544 6.13542 9.79362 6.0625 9.14648 6.0625C9.02799 6.0625 8.87305 6.06706 8.68164 6.07617C8.49935 6.07617 8.30339 6.08984 8.09375 6.11719C7.89323 6.13542 7.68815 6.16732 7.47852 6.21289C7.26888 6.25846 7.08203 6.32227 6.91797 6.4043C6.75391 6.47721 6.62174 6.57747 6.52148 6.70508C6.42122 6.83268 6.37565 6.98307 6.38477 7.15625C6.39388 7.35677 6.4668 7.52083 6.60352 7.64844C6.74935 7.76693 6.93164 7.86263 7.15039 7.93555C7.37826 7.99935 7.62435 8.04492 7.88867 8.07227C8.16211 8.09961 8.43099 8.11784 8.69531 8.12695C8.95964 8.12695 9.20573 8.12695 9.43359 8.12695C9.66146 8.11784 9.84831 8.1224 9.99414 8.14062C10.7233 8.1862 11.3796 8.34115 11.9629 8.60547C12.5462 8.86979 13.0384 9.2207 13.4395 9.6582C13.8496 10.0957 14.1595 10.6198 14.3691 11.2305C14.5879 11.832 14.6973 12.4974 14.6973 13.2266ZM31.8008 20.5L24.9648 20.8281L24.9102 14.5117H21.7656L21.5742 20.5H15.4492L15.9688 1.27734L22.4766 1.57812L22.0664 11.3945H25.1016L25.1289 0.839844L31.3633 1.00391L31.8008 20.5ZM49.998 10.8477C49.998 11.6771 49.9023 12.4792 49.7109 13.2539C49.5195 14.0195 49.2415 14.7396 48.877 15.4141C48.5215 16.0885 48.084 16.7083 47.5645 17.2734C47.054 17.8294 46.4753 18.3079 45.8281 18.709C45.1901 19.11 44.4928 19.4245 43.7363 19.6523C42.9798 19.8711 42.1777 19.9805 41.3301 19.9805C40.5098 19.9805 39.7259 19.8757 38.9785 19.666C38.2402 19.4564 37.5475 19.1647 36.9004 18.791C36.2533 18.4082 35.6654 17.9525 35.1367 17.4238C34.6172 16.8861 34.1706 16.2936 33.7969 15.6465C33.4323 14.9902 33.1452 14.2884 32.9355 13.541C32.735 12.7936 32.6348 12.0143 32.6348 11.2031C32.6348 10.4102 32.7305 9.63542 32.9219 8.87891C33.1133 8.11328 33.3867 7.39323 33.7422 6.71875C34.1068 6.04427 34.5443 5.42448 35.0547 4.85938C35.5651 4.29427 36.1348 3.80664 36.7637 3.39648C37.4017 2.98633 38.0898 2.66732 38.8281 2.43945C39.5664 2.21159 40.3457 2.09766 41.166 2.09766C42.4876 2.09766 43.6908 2.30273 44.7754 2.71289C45.8691 3.12305 46.7988 3.71094 47.5645 4.47656C48.3392 5.23307 48.9362 6.15365 49.3555 7.23828C49.7839 8.3138 49.998 9.51693 49.998 10.8477ZM43.9277 11.2031C43.9277 10.8112 43.8685 10.4329 43.75 10.0684C43.6406 9.69466 43.4766 9.36654 43.2578 9.08398C43.0391 8.79232 42.7656 8.5599 42.4375 8.38672C42.1185 8.20443 41.7493 8.11328 41.3301 8.11328C40.9017 8.11328 40.5189 8.19076 40.1816 8.3457C39.8444 8.50065 39.5527 8.71484 39.3066 8.98828C39.0697 9.2526 38.8874 9.56706 38.7598 9.93164C38.6322 10.2871 38.5684 10.6654 38.5684 11.0664C38.5684 11.4492 38.623 11.832 38.7324 12.2148C38.8418 12.5977 39.0059 12.944 39.2246 13.2539C39.4434 13.5638 39.7122 13.8145 40.0312 14.0059C40.3594 14.1973 40.7376 14.293 41.166 14.293C41.5944 14.293 41.9772 14.2109 42.3145 14.0469C42.6608 13.8737 42.9525 13.6458 43.1895 13.3633C43.4264 13.0716 43.6087 12.7389 43.7363 12.3652C43.8639 11.9915 43.9277 11.6042 43.9277 11.2031ZM66.8828 7.34766C66.8828 8.23177 66.7507 9.01562 66.4863 9.69922C66.222 10.3828 65.8574 10.9798 65.3926 11.4902C64.9368 12.0007 64.3991 12.4336 63.7793 12.7891C63.1595 13.1445 62.4941 13.4362 61.7832 13.6641C61.0814 13.8828 60.3522 14.0469 59.5957 14.1562C58.8392 14.2565 58.0964 14.3112 57.3672 14.3203V20.6914H50.9961C50.9961 18.6042 51.0007 16.526 51.0098 14.457C51.0189 12.388 51.0326 10.3008 51.0508 8.19531C51.069 7.08333 51.0736 5.97135 51.0645 4.85938C51.0553 3.7474 51.0781 2.6263 51.1328 1.49609C52.2995 1.14974 53.4661 0.889974 54.6328 0.716797C55.7995 0.54362 57.0026 0.457031 58.2422 0.457031C58.944 0.457031 59.6458 0.516276 60.3477 0.634766C61.0495 0.744141 61.7194 0.921875 62.3574 1.16797C63.0046 1.41406 63.6016 1.72396 64.1484 2.09766C64.7044 2.46224 65.1829 2.89974 65.584 3.41016C65.985 3.92057 66.2995 4.50391 66.5273 5.16016C66.7643 5.80729 66.8828 6.53646 66.8828 7.34766ZM60.8125 7.8125C60.8125 7.22005 60.6302 6.75977 60.2656 6.43164C59.9102 6.0944 59.4453 5.92578 58.8711 5.92578C58.6797 5.92578 58.4792 5.94401 58.2695 5.98047C58.069 6.00781 57.8776 6.04427 57.6953 6.08984L57.5312 10.082C57.6589 10.1003 57.7819 10.1094 57.9004 10.1094C58.0189 10.1094 58.1419 10.1094 58.2695 10.1094C58.5977 10.1094 58.9121 10.0547 59.2129 9.94531C59.5228 9.83594 59.7962 9.68099 60.0332 9.48047C60.2702 9.27083 60.457 9.0293 60.5938 8.75586C60.7396 8.47331 60.8125 8.15885 60.8125 7.8125ZM95.1289 1.27734L94.3633 7.04688C94.099 6.97396 93.8346 6.92383 93.5703 6.89648C93.306 6.86914 93.0417 6.85547 92.7773 6.85547C92.1029 6.85547 91.4603 6.94661 90.8496 7.12891C90.2389 7.30208 89.6966 7.57096 89.2227 7.93555C88.7578 8.30013 88.3841 8.75586 88.1016 9.30273C87.8281 9.84961 87.6914 10.4922 87.6914 11.2305C87.6914 11.7044 87.7643 12.1146 87.9102 12.4609C88.0651 12.8073 88.2793 13.0944 88.5527 13.3223C88.8262 13.5501 89.1497 13.7188 89.5234 13.8281C89.8971 13.9375 90.3073 13.9922 90.7539 13.9922C91.0911 13.9922 91.4421 13.9557 91.8066 13.8828C92.1712 13.8099 92.5312 13.7142 92.8867 13.5957C93.2422 13.4772 93.5885 13.3405 93.9258 13.1855C94.263 13.0306 94.5729 12.8711 94.8555 12.707L94.3086 19.1328C93.9531 19.3151 93.5658 19.4792 93.1465 19.625C92.7363 19.7617 92.3125 19.8848 91.875 19.9941C91.4375 20.0944 91 20.1719 90.5625 20.2266C90.125 20.2812 89.7057 20.3086 89.3047 20.3086C88.1471 20.3086 87.0671 20.0944 86.0645 19.666C85.0618 19.2376 84.1914 18.6497 83.4531 17.9023C82.7148 17.1549 82.1315 16.2754 81.7031 15.2637C81.2839 14.2428 81.0742 13.1445 81.0742 11.9688C81.0742 10.4102 81.2975 8.94271 81.7441 7.56641C82.1908 6.18099 82.847 4.96875 83.7129 3.92969C84.5788 2.89062 85.6497 2.07031 86.9258 1.46875C88.2109 0.867188 89.6875 0.566406 91.3555 0.566406C91.9844 0.566406 92.627 0.616536 93.2832 0.716797C93.9486 0.817057 94.5638 1.00391 95.1289 1.27734ZM113.23 19.3242L106.449 20.1992L105.629 17.1094H102.512L101.828 20.1992L94.8555 19.5156L100.297 1.30469L107.898 0.921875L113.23 19.3242ZM105.137 12.9258L104.098 8.16797L103.086 12.9258H105.137ZM127.518 13.2266C127.518 14.4753 127.299 15.569 126.861 16.5078C126.433 17.4375 125.84 18.2122 125.084 18.832C124.337 19.4518 123.457 19.9167 122.445 20.2266C121.443 20.5365 120.363 20.6914 119.205 20.6914C118.758 20.6914 118.266 20.6322 117.729 20.5137C117.2 20.3952 116.662 20.2493 116.115 20.0762C115.568 19.8939 115.04 19.7025 114.529 19.502C114.028 19.2923 113.581 19.0964 113.189 18.9141L113.791 13.2812C114.566 13.7461 115.423 14.1016 116.361 14.3477C117.309 14.5846 118.239 14.7031 119.15 14.7031C119.324 14.7031 119.533 14.6986 119.779 14.6895C120.025 14.6712 120.258 14.6302 120.477 14.5664C120.704 14.4935 120.896 14.3887 121.051 14.252C121.206 14.1152 121.283 13.9193 121.283 13.6641C121.283 13.4909 121.229 13.3451 121.119 13.2266C121.01 13.099 120.868 12.9987 120.695 12.9258C120.522 12.8438 120.326 12.7845 120.107 12.748C119.889 12.7025 119.674 12.6706 119.465 12.6523C119.255 12.6341 119.059 12.625 118.877 12.625C118.695 12.625 118.549 12.625 118.439 12.625C117.656 12.625 116.94 12.4883 116.293 12.2148C115.655 11.9414 115.104 11.5632 114.639 11.0801C114.183 10.5879 113.827 10.0091 113.572 9.34375C113.317 8.66927 113.189 7.9401 113.189 7.15625C113.189 6.08073 113.404 5.11914 113.832 4.27148C114.27 3.41471 114.848 2.6901 115.568 2.09766C116.298 1.49609 117.132 1.03581 118.07 0.716797C119.009 0.397786 119.98 0.238281 120.982 0.238281C121.429 0.238281 121.889 0.25651 122.363 0.292969C122.837 0.320312 123.307 0.375 123.771 0.457031C124.245 0.539062 124.706 0.64388 125.152 0.771484C125.599 0.899089 126.023 1.05859 126.424 1.25L125.904 6.80078C125.285 6.59115 124.633 6.41797 123.949 6.28125C123.275 6.13542 122.614 6.0625 121.967 6.0625C121.848 6.0625 121.693 6.06706 121.502 6.07617C121.32 6.07617 121.124 6.08984 120.914 6.11719C120.714 6.13542 120.508 6.16732 120.299 6.21289C120.089 6.25846 119.902 6.32227 119.738 6.4043C119.574 6.47721 119.442 6.57747 119.342 6.70508C119.242 6.83268 119.196 6.98307 119.205 7.15625C119.214 7.35677 119.287 7.52083 119.424 7.64844C119.57 7.76693 119.752 7.86263 119.971 7.93555C120.199 7.99935 120.445 8.04492 120.709 8.07227C120.982 8.09961 121.251 8.11784 121.516 8.12695C121.78 8.12695 122.026 8.12695 122.254 8.12695C122.482 8.11784 122.669 8.1224 122.814 8.14062C123.544 8.1862 124.2 8.34115 124.783 8.60547C125.367 8.86979 125.859 9.2207 126.26 9.6582C126.67 10.0957 126.98 10.6198 127.189 11.2305C127.408 11.832 127.518 12.4974 127.518 13.2266ZM144.621 20.5L137.785 20.8281L137.73 14.5117H134.586L134.395 20.5H128.27L128.789 1.27734L135.297 1.57812L134.887 11.3945H137.922L137.949 0.839844L144.184 1.00391L144.621 20.5Z" fill="url(#paint0_linear_154_1558)" fill-opacity="0.96"/>
<path d="M80.3906 7.62109C80.3906 8.35026 80.2585 9.04753 79.9941 9.71289C79.7298 10.3691 79.3789 10.9889 78.9414 11.5723C78.513 12.1465 78.0208 12.6797 77.4648 13.1719C76.918 13.6549 76.362 14.0924 75.7969 14.4844H80.1172L79.7891 20.1719L66.9922 19.7344V14.7578C67.4753 14.5938 67.9811 14.3978 68.5098 14.1699C69.0475 13.9329 69.5716 13.6641 70.082 13.3633C70.6016 13.0625 71.0892 12.7253 71.5449 12.3516C72.0098 11.9779 72.4154 11.5723 72.7617 11.1348C73.1172 10.6882 73.3952 10.2051 73.5957 9.68555C73.8053 9.16602 73.9102 8.60547 73.9102 8.00391C73.9102 7.65755 73.8464 7.35221 73.7188 7.08789C73.6003 6.82357 73.4316 6.60482 73.2129 6.43164C72.9941 6.24935 72.7389 6.11719 72.4473 6.03516C72.1647 5.94401 71.8594 5.89844 71.5312 5.89844C71.2578 5.89844 70.9798 5.93034 70.6973 5.99414C70.4147 6.04883 70.1367 6.13086 69.8633 6.24023C69.5898 6.34961 69.3301 6.48633 69.084 6.65039C68.847 6.80534 68.6328 6.98307 68.4414 7.18359L67.2383 1.82422C67.5755 1.48698 67.9629 1.20443 68.4004 0.976562C68.8379 0.748698 69.2982 0.566406 69.7812 0.429688C70.2643 0.283854 70.7565 0.179036 71.2578 0.115234C71.7591 0.0514323 72.2513 0.0195312 72.7344 0.0195312C73.8099 0.0195312 74.8125 0.215495 75.7422 0.607422C76.6719 0.990234 77.4785 1.52344 78.1621 2.20703C78.8548 2.88151 79.3971 3.68359 79.7891 4.61328C80.1901 5.54297 80.3906 6.54557 80.3906 7.62109Z" fill="url(#paint1_linear_154_1558)" fill-opacity="0.96"/>
<path d="M80.3906 7.62109C80.3906 8.35026 80.2585 9.04753 79.9941 9.71289C79.7298 10.3691 79.3789 10.9889 78.9414 11.5723C78.513 12.1465 78.0208 12.6797 77.4648 13.1719C76.918 13.6549 76.362 14.0924 75.7969 14.4844H80.1172L79.7891 20.1719L66.9922 19.7344V14.7578C67.4753 14.5938 67.9811 14.3978 68.5098 14.1699C69.0475 13.9329 69.5716 13.6641 70.082 13.3633C70.6016 13.0625 71.0892 12.7253 71.5449 12.3516C72.0098 11.9779 72.4154 11.5723 72.7617 11.1348C73.1172 10.6882 73.3952 10.2051 73.5957 9.68555C73.8053 9.16602 73.9102 8.60547 73.9102 8.00391C73.9102 7.65755 73.8464 7.35221 73.7188 7.08789C73.6003 6.82357 73.4316 6.60482 73.2129 6.43164C72.9941 6.24935 72.7389 6.11719 72.4473 6.03516C72.1647 5.94401 71.8594 5.89844 71.5312 5.89844C71.2578 5.89844 70.9798 5.93034 70.6973 5.99414C70.4147 6.04883 70.1367 6.13086 69.8633 6.24023C69.5898 6.34961 69.3301 6.48633 69.084 6.65039C68.847 6.80534 68.6328 6.98307 68.4414 7.18359L67.2383 1.82422C67.5755 1.48698 67.9629 1.20443 68.4004 0.976562C68.8379 0.748698 69.2982 0.566406 69.7812 0.429688C70.2643 0.283854 70.7565 0.179036 71.2578 0.115234C71.7591 0.0514323 72.2513 0.0195312 72.7344 0.0195312C73.8099 0.0195312 74.8125 0.215495 75.7422 0.607422C76.6719 0.990234 77.4785 1.52344 78.1621 2.20703C78.8548 2.88151 79.3971 3.68359 79.7891 4.61328C80.1901 5.54297 80.3906 6.54557 80.3906 7.62109Z" fill="#D96F04"/>
<defs>
<linearGradient id="paint0_linear_154_1558" x1="108.14" y1="20.5" x2="54.4052" y2="-39.6794" gradientUnits="userSpaceOnUse">
<stop stop-color="#3C096C"/>
<stop offset="1" stop-color="#621CA3"/>
</linearGradient>
<linearGradient id="paint1_linear_154_1558" x1="108.14" y1="20.5" x2="54.4052" y2="-39.6794" gradientUnits="userSpaceOnUse">
<stop stop-color="#3C096C"/>
<stop offset="1" stop-color="#621CA3"/>
</linearGradient>
</defs>
</svg>
